<svg viewBox="0 0 508 488" fill="none" xmlns="http://www.w3.org/2000/svg">
<path d="M339.281 146.356C337.523 148.442 335.292 150.078 332.773 151.125L325.558 159.25L305.121 183.928L291.313 192.28L284.902 181.243L315.167 151.763L323.6 143.182C324.277 140.538 325.576 138.094 327.391 136.056C331.859 130.895 338.144 129.017 341.427 131.861C344.711 134.705 343.751 141.193 339.281 146.356Z" fill="#FFAFAF"/>
<path d="M215.756 170.876L229.047 148.758L285.59 173.053L316.496 147.801C316.496 147.801 328.758 158.364 329.196 158.741C329.634 159.118 298.03 202.892 295.786 202.84C293.541 202.789 215.756 170.876 215.756 170.876Z" fill="#DEDEDE"/>
<path d="M0 480.745C0 481.405 0.53003 481.935 1.19006 481.935H506.806C507.466 481.935 507.996 481.405 507.996 480.745C507.996 480.085 507.466 479.555 506.806 479.555H1.19006C0.53003 479.555 0 480.085 0 480.745Z" fill="#3F3D58"/>
<path d="M343.378 1.5C383.63 1.5 416.378 32.2285 416.378 70C416.378 80.5537 413.749 91.0508 408.759 100.469H408.819L407.498 102.766C396.286 122.081 390.06 144.078 389.495 166.377C389.323 173.175 383.861 178.5 377.061 178.5H320.175C312.845 178.5 306.688 173.246 305.537 166.007C302.735 148.395 297.132 131.424 288.884 115.564C276.949 103.005 270.378 86.8281 270.378 70C270.378 32.2285 303.126 1.5 343.378 1.5ZM405.729 101.829L406.202 100.978C411.551 91.4834 414.378 80.7715 414.378 70C414.378 33.332 382.527 3.5 343.378 3.5C304.229 3.5 272.378 33.332 272.378 70C272.378 86.3584 278.788 102.086 290.429 114.287L290.592 114.516C298.976 130.602 304.669 147.82 307.512 165.692C308.508 171.955 313.834 176.5 320.175 176.5H377.061C382.768 176.5 387.351 172.031 387.496 166.326C388.068 143.72 394.373 121.419 405.729 101.829Z" fill="#3F3D56" stroke="black"/>
<path d="M343.5 0.999985C383.752 0.999985 416.5 31.7285 416.5 69.5C416.5 80.0537 413.871 90.5508 408.881 99.9687H408.941L407.62 102.266C396.408 121.581 390.182 143.578 389.617 165.877C389.445 172.675 383.983 178 377.183 178H320.297C312.967 178 306.811 172.746 305.659 165.507C302.857 147.895 297.254 130.924 289.006 115.064C277.071 102.505 270.5 86.3281 270.5 69.5C270.5 31.7285 303.248 0.999985 343.5 0.999985Z" fill="white" stroke="black" stroke-width="2"/>
<path d="M384.931 173.5H309.825C307.437 173.5 305.564 175.551 305.781 177.929L306.484 185.664C307.072 192.138 309.115 198.395 312.459 203.969C313.019 204.901 314.075 205.411 315.154 205.281C337.409 202.599 359.185 202.511 380.439 205.242C381.601 205.392 382.729 204.798 383.254 203.749L383.735 202.786C386.142 197.971 387.628 192.749 388.116 187.387L388.975 177.929C389.192 175.551 387.319 173.5 384.931 173.5Z" fill="#3F3D56"/>
<path d="M317.378 200H378.878V240.028C378.878 247.188 373.065 253 365.906 253H330.35C323.191 253 317.378 247.188 317.378 240.028V200Z" fill="#3F3D56"/>
<path d="M356.042 263.5H342.714C341.248 263.5 339.872 262.792 339.02 261.599L330.378 249.5H368.378L359.736 261.599C358.884 262.792 357.508 263.5 356.042 263.5Z" fill="#3F3D56"/>
<path d="M366.126 36.8265C356.341 38.8526 346.556 40.8788 336.771 42.9049C332.371 43.816 327.443 44.2888 323.445 46.4756C319.569 48.5957 316.855 53.044 318.241 57.4971C319.566 61.7496 323.474 64.4172 327.666 65.3656C332.317 66.4177 337.299 66.4103 342.04 66.7763C346.985 67.158 351.93 67.5397 356.875 67.9214C359.228 68.103 361.594 68.2285 363.942 68.4702C364.693 68.5475 365.512 68.6397 366.128 69.1161C366.119 69.1089 366.337 69.2453 366.216 69.2662C366.192 69.2703 366.19 69.1119 366.194 69.1013C366.289 68.8046 366.25 69.0854 366.173 69.0861C366.146 69.0863 365.438 69.5542 365.043 69.6281C363.977 69.8274 362.801 69.6824 361.72 69.664C359.373 69.624 357.025 69.6683 354.681 69.7961C349.964 70.0533 345.253 70.6401 340.613 71.529C336.049 72.4033 331.506 73.5674 327.123 75.1181C322.873 76.6216 318.422 79.4767 318.306 84.5143C318.198 89.2456 322.302 92.5705 326.482 93.759C328.632 94.3703 330.898 94.5919 333.103 94.92C335.564 95.286 338.024 95.652 340.484 96.018C345.323 96.7378 350.162 97.4576 355 98.1774C357.461 98.5434 359.921 98.9094 362.381 99.2754C363.528 99.446 364.682 99.5932 365.826 99.7878C366.247 99.8595 366.645 99.9921 367.061 100.077C366.781 100.02 367.128 100.021 367.071 100.086C367.253 100.197 367.253 100.18 367.072 100.035L366.948 99.8535C366.666 99.0609 366.676 98.9565 367.191 98.0193C367.289 97.8403 367.489 98.025 367.234 97.9969C366.963 97.9668 367.397 97.9628 367.108 98.0824C366.963 98.1422 366.806 98.1829 366.655 98.2246C365.516 98.5398 364.322 98.7045 363.163 98.9322C360.752 99.4055 358.341 99.8788 355.931 100.352C351.19 101.283 346.449 102.214 341.709 103.145C333.358 104.785 324.489 107.003 319.484 114.539C318.395 116.178 317.605 118.067 317.21 119.993C316.886 121.579 317.67 123.234 319.306 123.684C320.789 124.091 322.669 123.183 322.996 121.588C324.581 113.848 333.051 111.069 340.016 109.592C344.633 108.613 349.279 107.757 353.91 106.848C358.578 105.931 363.32 105.185 367.947 104.086C369.893 103.624 372.004 102.428 372.547 100.354C373.143 98.0828 372.022 95.8903 369.963 94.8323C367.989 93.8175 365.642 93.7374 363.484 93.4165C361.106 93.0627 358.728 92.7089 356.349 92.3551C351.511 91.6353 346.672 90.9155 341.833 90.1957C339.455 89.8419 337.077 89.4881 334.698 89.1343C332.493 88.8062 330.228 88.5847 328.077 87.9734C326.623 87.5597 325.134 86.85 324.492 85.4649C324.285 85.0183 324.231 84.6933 324.373 84.191C324.567 83.5015 325.107 82.8594 325.708 82.3842C327.093 81.2889 328.968 80.8002 330.615 80.2719C332.775 79.5787 334.96 78.9603 337.163 78.4179C341.538 77.341 345.984 76.5529 350.468 76.116C352.805 75.8885 355.149 75.7438 357.495 75.6829C359.716 75.6253 361.94 75.7629 364.158 75.6942C366.521 75.621 368.954 74.989 370.577 73.1567C372.247 71.271 372.653 68.6962 371.491 66.4357C369.192 61.9624 363.1 62.4019 358.853 62.0741C353.99 61.6987 349.128 61.3234 344.265 60.948C339.719 60.597 335.044 60.5231 330.537 59.8234C328.867 59.5643 326.943 59.0872 325.685 58.0925C324.531 57.1807 323.781 55.9851 323.873 54.7871C323.958 53.6727 325.096 52.4418 326.288 51.7577C327.959 50.798 329.931 50.4399 331.798 50.0507C341.405 48.0479 351.017 46.0709 360.627 44.0811C362.992 43.5914 365.357 43.1018 367.721 42.6121C369.309 42.2835 370.226 40.4115 369.817 38.9218C369.364 37.2739 367.718 36.4968 366.126 36.8265Z" fill="#EB9E0A"/>
<path d="M240.026 132.5H220.374V170.647H240.026V132.5Z" fill="#FFAFAF"/>
<path d="M272.469 238.798L225.074 235.33C225.074 235.33 205.423 280.414 220.45 309.313L230.854 369.424L226.74 468.362H248.267L281.717 309.313L272.469 238.798Z" fill="#2F2E41"/>
<path d="M263.221 289.292L281.717 305.39L272.469 463.058H251.662L263.221 289.292Z" fill="#2F2E41"/>
<path d="M229.934 140C243.503 140 254.503 129.001 254.503 115.432C254.503 101.863 243.503 90.8628 229.934 90.8628C216.365 90.8628 205.365 101.863 205.365 115.432C205.365 129.001 216.365 140 229.934 140Z" fill="#FFAFAF"/>
<path d="M226.992 444.881L252.371 448.891L257.141 467.097C257.141 467.097 277.748 474.852 267.819 483.278C257.889 491.705 221.208 487.348 218.308 481.304C215.408 475.259 226.992 444.881 226.992 444.881Z" fill="#2F2E41"/>
<path d="M247.799 444.881L273.179 448.891L277.949 467.097C277.949 467.097 298.556 474.852 288.626 483.278C278.697 491.705 242.016 487.348 239.115 481.304C236.215 475.259 247.799 444.881 247.799 444.881Z" fill="#2F2E41"/>
<path d="M317.913 234.888C315.185 234.919 312.49 234.295 310.052 233.07L299.187 232.906L267.151 233.528L251.812 228.518L255.99 216.457L298.078 220.147L310.083 220.936C312.528 219.723 315.228 219.113 317.956 219.158C324.783 219.174 330.307 222.71 330.296 227.054C330.284 231.399 324.742 234.906 317.913 234.888Z" fill="#FFAFAF"/>
<path d="M241.836 146.898H217.514L209.469 171.174L225.074 235.33L272.469 238.798L269.579 212.789C275.175 203.696 274.728 192.125 268.449 183.491L241.836 146.898Z" fill="#DEDEDE"/>
<path d="M218.716 157.302L244.148 152.936L262.643 211.633L301.947 218.569V235.331C301.947 235.908 248.155 240.532 246.729 238.798C245.304 237.064 218.716 157.302 218.716 157.302Z" fill="#DEDEDE"/>
<path d="M242.202 101.187C245.22 106.084 242.438 112.533 238.72 116.922C235.001 121.31 230.207 125.162 228.547 130.67C227.059 135.607 228.413 140.932 230.163 145.783C231.913 150.634 234.09 155.471 234.27 160.624C234.451 165.778 232.011 171.47 227.157 173.21C222.175 174.995 216.286 172.189 211.487 174.421C205.237 177.328 203.821 187.393 197.008 188.437C192.814 189.079 188.928 185.443 187.756 181.366C186.584 177.289 187.426 172.938 188.273 168.781C190.594 157.393 192.915 146.004 195.236 134.615C197.168 125.139 199.099 115.663 201.03 106.187C202.183 100.53 203.551 94.4777 207.804 90.5714C212.999 85.7982 220.831 85.6847 227.881 85.9708C234.358 86.2336 241.096 86.6768 246.735 89.8746C252.373 93.0725 256.515 99.8699 254.564 106.052C252.741 101.701 247.297 99.2601 242.836 100.794" fill="#2F2E41"/>
</svg>
