<svg width="860" height="62" viewBox="0 0 860 62" fill="none" xmlns="http://www.w3.org/2000/svg">
<path d="M0.08 61L12 5H31.28C35.0133 5 38.4533 5.64 41.6 6.92C44.8 8.14666 47.5733 9.90666 49.92 12.2C52.32 14.44 54.16 17.08 55.44 20.12C56.7733 23.16 57.44 26.4667 57.44 30.04C57.44 34.2533 56.5867 38.2267 54.88 41.96C53.1733 45.6933 50.8267 49 47.84 51.88C44.9067 54.7067 41.4933 56.9467 37.6 58.6C33.76 60.2 29.6533 61 25.28 61H0.08ZM16.08 48.84H26.24C28.64 48.84 30.8533 48.3867 32.88 47.48C34.96 46.5733 36.7733 45.32 38.32 43.72C39.92 42.0667 41.1467 40.1733 42 38.04C42.9067 35.9067 43.36 33.6133 43.36 31.16C43.36 28.44 42.7467 26.04 41.52 23.96C40.3467 21.8267 38.72 20.1733 36.64 19C34.6133 17.7733 32.2667 17.16 29.6 17.16H22.88L16.08 48.84ZM82.8988 61.88C78.6854 61.88 74.9254 61.0267 71.6188 59.32C68.3654 57.56 65.8054 55.16 63.9388 52.12C62.0721 49.0267 61.1388 45.5333 61.1388 41.64C61.1388 38.44 61.7254 35.4267 62.8988 32.6C64.1254 29.72 65.8054 27.1867 67.9388 25C70.0721 22.8133 72.5254 21.1067 75.2988 19.88C78.1254 18.6533 81.1388 18.04 84.3388 18.04C88.1788 18.04 91.5654 18.92 94.4988 20.68C97.4321 22.44 99.7254 24.8667 101.379 27.96C103.032 31 103.859 34.5467 103.859 38.6C103.859 39.1867 103.832 39.8533 103.779 40.6C103.725 41.3467 103.592 42.5467 103.379 44.2H73.7788C74.2054 45.5867 74.8988 46.8133 75.8588 47.88C76.8188 48.9467 77.9654 49.7733 79.2988 50.36C80.6854 50.9467 82.2321 51.24 83.9388 51.24C85.6454 51.24 87.1921 51 88.5788 50.52C90.0188 49.9867 91.2721 49.24 92.3388 48.28L99.4588 56.36C96.7921 58.3333 94.1521 59.7467 91.5388 60.6C88.9788 61.4533 86.0988 61.88 82.8988 61.88ZM74.4988 35.24H91.9388C91.5654 33.9067 90.9788 32.76 90.1788 31.8C89.4321 30.7867 88.4988 30.0133 87.3788 29.48C86.3121 28.9467 85.1121 28.68 83.7788 28.68C82.3921 28.68 81.1121 28.9733 79.9388 29.56C78.7654 30.0933 77.6988 30.84 76.7388 31.8C75.8321 32.76 75.0854 33.9067 74.4988 35.24ZM125.214 61.88C121.16 61.88 117.294 61.2667 113.614 60.04C109.934 58.76 106.867 57.0533 104.414 54.92L111.454 46.6C113.854 48.4667 116.174 49.88 118.414 50.84C120.707 51.7467 123 52.2 125.294 52.2C127.16 52.2 128.654 51.88 129.774 51.24C130.894 50.6 131.454 49.7733 131.454 48.76C131.454 48.0133 131.134 47.4 130.494 46.92C129.854 46.44 128.92 46.0667 127.694 45.8L119.614 44.04C116.147 43.2933 113.48 41.9067 111.614 39.88C109.747 37.8 108.814 35.24 108.814 32.2C108.814 29.2667 109.507 26.76 110.894 24.68C112.28 22.5467 114.254 20.92 116.814 19.8C119.427 18.6267 122.52 18.04 126.094 18.04C129.614 18.04 133 18.6 136.254 19.72C139.507 20.84 142.36 22.4133 144.814 24.44L137.854 32.28C135.72 30.7333 133.587 29.56 131.454 28.76C129.32 27.96 127.24 27.56 125.214 27.56C123.614 27.56 122.36 27.8267 121.454 28.36C120.547 28.8933 120.094 29.6667 120.094 30.68C120.094 31.48 120.414 32.1467 121.054 32.68C121.747 33.16 122.867 33.56 124.414 33.88L132.494 35.64C136.014 36.3867 138.734 37.7733 140.654 39.8C142.627 41.8267 143.614 44.28 143.614 47.16C143.614 49.9333 142.814 52.44 141.214 54.68C139.614 56.92 137.427 58.68 134.654 59.96C131.88 61.24 128.734 61.88 125.214 61.88ZM169.618 61.88C165.404 61.88 161.644 61.0267 158.338 59.32C155.084 57.56 152.524 55.16 150.658 52.12C148.791 49.0267 147.858 45.5333 147.858 41.64C147.858 38.44 148.444 35.4267 149.618 32.6C150.844 29.72 152.524 27.1867 154.658 25C156.791 22.8133 159.244 21.1067 162.018 19.88C164.844 18.6533 167.858 18.04 171.058 18.04C174.898 18.04 178.284 18.92 181.218 20.68C184.151 22.44 186.444 24.8667 188.098 27.96C189.751 31 190.578 34.5467 190.578 38.6C190.578 39.1867 190.551 39.8533 190.498 40.6C190.444 41.3467 190.311 42.5467 190.098 44.2H160.498C160.924 45.5867 161.618 46.8133 162.578 47.88C163.538 48.9467 164.684 49.7733 166.018 50.36C167.404 50.9467 168.951 51.24 170.658 51.24C172.364 51.24 173.911 51 175.298 50.52C176.738 49.9867 177.991 49.24 179.058 48.28L186.178 56.36C183.511 58.3333 180.871 59.7467 178.258 60.6C175.698 61.4533 172.818 61.88 169.618 61.88ZM161.218 35.24H178.658C178.284 33.9067 177.698 32.76 176.898 31.8C176.151 30.7867 175.218 30.0133 174.098 29.48C173.031 28.9467 171.831 28.68 170.498 28.68C169.111 28.68 167.831 28.9733 166.658 29.56C165.484 30.0933 164.418 30.84 163.458 31.8C162.551 32.76 161.804 33.9067 161.218 35.24ZM192.252 61L201.213 18.68H213.932L213.372 21.32C216.786 19.1333 220.466 18.04 224.413 18.04C227.773 18.04 230.599 18.8133 232.893 20.36C235.186 21.9067 236.786 24.0133 237.693 26.68C238.653 29.3467 238.759 32.3867 238.012 35.8L232.653 61H219.933L225.053 37C225.533 34.6 225.186 32.68 224.013 31.24C222.839 29.7467 221.079 29 218.733 29C217.239 29 215.853 29.2667 214.573 29.8C213.293 30.28 212.119 31.0533 211.053 32.12L204.973 61H192.252ZM251.401 61L242.601 18.68H256.121L260.841 44.6L276.601 18.68H290.441L263.721 61H251.401ZM309.141 61.8C305.088 61.8 301.461 60.92 298.261 59.16C295.061 57.3467 292.528 54.8933 290.661 51.8C288.795 48.7067 287.861 45.24 287.861 41.4C287.861 38.2 288.475 35.1867 289.701 32.36C290.981 29.48 292.715 26.9733 294.901 24.84C297.141 22.6533 299.701 20.9467 302.581 19.72C305.515 18.4933 308.608 17.88 311.861 17.88C315.915 17.88 319.515 18.7867 322.661 20.6C325.861 22.36 328.395 24.7867 330.261 27.88C332.128 30.92 333.061 34.3867 333.061 38.28C333.061 41.48 332.421 44.4933 331.141 47.32C329.915 50.1467 328.181 52.6533 325.941 54.84C323.755 57.0267 321.221 58.7333 318.341 59.96C315.461 61.1867 312.395 61.8 309.141 61.8ZM309.701 50.6C311.195 50.6 312.581 50.3067 313.861 49.72C315.195 49.08 316.368 48.2267 317.381 47.16C318.395 46.0933 319.168 44.84 319.701 43.4C320.288 41.96 320.581 40.44 320.581 38.84C320.581 36.92 320.181 35.24 319.381 33.8C318.581 32.3067 317.461 31.16 316.021 30.36C314.635 29.5067 313.035 29.08 311.221 29.08C309.728 29.08 308.315 29.4 306.981 30.04C305.701 30.6267 304.555 31.4533 303.541 32.52C302.528 33.5867 301.728 34.84 301.141 36.28C300.608 37.72 300.341 39.24 300.341 40.84C300.341 42.7067 300.741 44.3867 301.541 45.88C302.341 47.3733 303.435 48.5467 304.821 49.4C306.261 50.2 307.888 50.6 309.701 50.6ZM334.596 61L346.516 5L359.796 2.2L347.316 61H334.596ZM368.823 61L360.023 18.68H373.543L378.263 44.6L394.023 18.68H407.863L381.143 61H368.823ZM402.643 61L411.603 18.68H424.323L415.363 61H402.643ZM419.523 14.76C417.763 14.76 416.27 14.1733 415.043 13C413.87 11.7733 413.283 10.28 413.283 8.52C413.283 7.08 413.63 5.74666 414.323 4.52C415.07 3.29333 416.03 2.33333 417.203 1.64C418.43 0.89333 419.736 0.519997 421.123 0.519997C422.883 0.519997 424.35 1.13333 425.523 2.36C426.75 3.53333 427.363 5 427.363 6.76C427.363 8.2 426.99 9.53333 426.243 10.76C425.55 11.9333 424.59 12.8933 423.363 13.64C422.19 14.3867 420.91 14.76 419.523 14.76ZM423.19 61L432.15 18.68H444.87L444.23 21.56C447.483 19.2133 450.95 18.04 454.63 18.04C457.297 18.04 459.617 18.6267 461.59 19.8C463.563 20.92 465.083 22.4667 466.15 24.44C468.177 22.36 470.417 20.7867 472.87 19.72C475.377 18.6 477.99 18.04 480.71 18.04C483.91 18.04 486.577 18.8133 488.71 20.36C490.897 21.9067 492.417 24.0133 493.27 26.68C494.177 29.3467 494.257 32.3867 493.51 35.8L488.15 61H475.43L480.55 37C481.03 34.6533 480.763 32.7333 479.75 31.24C478.737 29.7467 477.163 29 475.03 29C472.363 29 469.963 30.1733 467.83 32.52C467.777 33.0533 467.697 33.5867 467.59 34.12C467.537 34.6533 467.457 35.2133 467.35 35.8L461.99 61H449.27L454.39 37C454.87 34.6 454.603 32.68 453.59 31.24C452.63 29.7467 451.057 29 448.87 29C447.643 29 446.443 29.2667 445.27 29.8C444.15 30.28 443.057 31.0533 441.99 32.12L435.91 61H423.19ZM519.93 61.88C515.717 61.88 511.957 61.0267 508.65 59.32C505.397 57.56 502.837 55.16 500.97 52.12C499.103 49.0267 498.17 45.5333 498.17 41.64C498.17 38.44 498.757 35.4267 499.93 32.6C501.157 29.72 502.837 27.1867 504.97 25C507.103 22.8133 509.557 21.1067 512.33 19.88C515.157 18.6533 518.17 18.04 521.37 18.04C525.21 18.04 528.597 18.92 531.53 20.68C534.463 22.44 536.757 24.8667 538.41 27.96C540.063 31 540.89 34.5467 540.89 38.6C540.89 39.1867 540.863 39.8533 540.81 40.6C540.757 41.3467 540.623 42.5467 540.41 44.2H510.81C511.237 45.5867 511.93 46.8133 512.89 47.88C513.85 48.9467 514.997 49.7733 516.33 50.36C517.717 50.9467 519.263 51.24 520.97 51.24C522.677 51.24 524.223 51 525.61 50.52C527.05 49.9867 528.303 49.24 529.37 48.28L536.49 56.36C533.823 58.3333 531.183 59.7467 528.57 60.6C526.01 61.4533 523.13 61.88 519.93 61.88ZM511.53 35.24H528.97C528.597 33.9067 528.01 32.76 527.21 31.8C526.463 30.7867 525.53 30.0133 524.41 29.48C523.343 28.9467 522.143 28.68 520.81 28.68C519.423 28.68 518.143 28.9733 516.97 29.56C515.797 30.0933 514.73 30.84 513.77 31.8C512.863 32.76 512.117 33.9067 511.53 35.24ZM542.565 61L551.525 18.68H564.245L563.685 21.32C567.098 19.1333 570.778 18.04 574.725 18.04C578.085 18.04 580.912 18.8133 583.205 20.36C585.498 21.9067 587.098 24.0133 588.005 26.68C588.965 29.3467 589.072 32.3867 588.325 35.8L582.965 61H570.245L575.365 37C575.845 34.6 575.498 32.68 574.325 31.24C573.152 29.7467 571.392 29 569.045 29C567.552 29 566.165 29.2667 564.885 29.8C563.605 30.28 562.432 31.0533 561.365 32.12L555.285 61H542.565ZM610.493 61.48C605.426 61.48 601.773 60.28 599.533 57.88C597.346 55.4267 596.733 51.9333 597.693 47.4L601.533 29.48H593.133L595.373 18.68H603.773L606.093 7.8L619.373 5L616.413 18.68H628.013L625.773 29.48H614.173L610.733 45.4C610.36 47.32 610.546 48.7067 611.293 49.56C612.093 50.4133 613.56 50.84 615.693 50.84C616.6 50.84 617.453 50.7867 618.253 50.68C619.106 50.5733 620.013 50.4133 620.973 50.2L618.733 60.6C617.72 60.8133 616.413 61 614.813 61.16C613.266 61.3733 611.826 61.48 610.493 61.48ZM648.829 61.8C644.775 61.8 641.149 60.92 637.949 59.16C634.749 57.3467 632.215 54.8933 630.349 51.8C628.482 48.7067 627.549 45.24 627.549 41.4C627.549 38.2 628.162 35.1867 629.389 32.36C630.669 29.48 632.402 26.9733 634.589 24.84C636.829 22.6533 639.389 20.9467 642.269 19.72C645.202 18.4933 648.295 17.88 651.549 17.88C655.602 17.88 659.202 18.7867 662.349 20.6C665.549 22.36 668.082 24.7867 669.949 27.88C671.815 30.92 672.749 34.3867 672.749 38.28C672.749 41.48 672.109 44.4933 670.829 47.32C669.602 50.1467 667.869 52.6533 665.629 54.84C663.442 57.0267 660.909 58.7333 658.029 59.96C655.149 61.1867 652.082 61.8 648.829 61.8ZM649.389 50.6C650.882 50.6 652.269 50.3067 653.549 49.72C654.882 49.08 656.055 48.2267 657.069 47.16C658.082 46.0933 658.855 44.84 659.389 43.4C659.975 41.96 660.269 40.44 660.269 38.84C660.269 36.92 659.869 35.24 659.069 33.8C658.269 32.3067 657.149 31.16 655.709 30.36C654.322 29.5067 652.722 29.08 650.909 29.08C649.415 29.08 648.002 29.4 646.669 30.04C645.389 30.6267 644.242 31.4533 643.229 32.52C642.215 33.5867 641.415 34.84 640.829 36.28C640.295 37.72 640.029 39.24 640.029 40.84C640.029 42.7067 640.429 44.3867 641.229 45.88C642.029 47.3733 643.122 48.5467 644.509 49.4C645.949 50.2 647.575 50.6 649.389 50.6Z" fill="#0153FF"/>
<path d="M700.069 61L699.749 5H713.109L712.469 39.64L729.349 5H741.989L744.229 39.48L758.229 5H772.069L747.989 61H733.669L731.589 25.24L714.309 61H700.069ZM787.743 61.88C783.529 61.88 779.769 61.0267 776.463 59.32C773.209 57.56 770.649 55.16 768.783 52.12C766.916 49.0267 765.983 45.5333 765.983 41.64C765.983 38.44 766.569 35.4267 767.743 32.6C768.969 29.72 770.649 27.1867 772.783 25C774.916 22.8133 777.369 21.1067 780.143 19.88C782.969 18.6533 785.983 18.04 789.183 18.04C793.023 18.04 796.409 18.92 799.343 20.68C802.276 22.44 804.569 24.8667 806.223 27.96C807.876 31 808.703 34.5467 808.703 38.6C808.703 39.1867 808.676 39.8533 808.623 40.6C808.569 41.3467 808.436 42.5467 808.223 44.2H778.623C779.049 45.5867 779.743 46.8133 780.703 47.88C781.663 48.9467 782.809 49.7733 784.143 50.36C785.529 50.9467 787.076 51.24 788.783 51.24C790.489 51.24 792.036 51 793.423 50.52C794.863 49.9867 796.116 49.24 797.183 48.28L804.303 56.36C801.636 58.3333 798.996 59.7467 796.383 60.6C793.823 61.4533 790.943 61.88 787.743 61.88ZM779.343 35.24H796.783C796.409 33.9067 795.823 32.76 795.023 31.8C794.276 30.7867 793.343 30.0133 792.223 29.48C791.156 28.9467 789.956 28.68 788.623 28.68C787.236 28.68 785.956 28.9733 784.783 29.56C783.609 30.0933 782.543 30.84 781.583 31.8C780.676 32.76 779.929 33.9067 779.343 35.24ZM835.978 61.56C833.578 61.56 831.338 61.1867 829.258 60.44C827.231 59.6933 825.391 58.6267 823.738 57.24L822.938 61H810.377L822.298 5L835.578 2.2L831.738 20.36C834.618 18.8667 837.631 18.12 840.778 18.12C844.351 18.12 847.551 19 850.378 20.76C853.204 22.4667 855.444 24.8133 857.098 27.8C858.804 30.7333 859.658 34.0667 859.658 37.8C859.658 41.1067 859.044 44.2 857.818 47.08C856.591 49.96 854.884 52.4933 852.698 54.68C850.564 56.8133 848.058 58.4933 845.178 59.72C842.351 60.9467 839.284 61.56 835.978 61.56ZM835.498 50.52C837.738 50.52 839.738 50.0133 841.498 49C843.258 47.9333 844.644 46.52 845.658 44.76C846.724 43 847.258 41.0533 847.258 38.92C847.258 37.0533 846.831 35.3733 845.978 33.88C845.124 32.3867 843.924 31.2133 842.378 30.36C840.884 29.5067 839.178 29.08 837.258 29.08C835.764 29.08 834.351 29.32 833.018 29.8C831.684 30.2267 830.431 30.92 829.258 31.88L826.138 46.44C827.204 47.72 828.538 48.7333 830.138 49.48C831.791 50.1733 833.578 50.52 835.498 50.52Z" fill="black"/>
</svg>
