<svg id="svg" version="1.1" xmlns="http://www.w3.org/2000/svg" xmlns:xlink="http://www.w3.org/1999/xlink" width="400" height="400" viewBox="0, 0, 400,400"><g id="svgg"><path id="path0" d="M55.380 169.944 C 55.380 198.393,55.425 198.950,58.123 204.255 C 61.605 211.102,69.934 216.839,76.422 216.859 L 77.039 216.861 77.039 181.083 L 77.039 145.305 66.210 145.305 L 55.380 145.305 55.380 169.944 M83.471 145.648 C 83.400 145.836,83.373 161.967,83.412 181.494 L 83.484 216.998 83.551 181.292 L 83.619 145.585 94.517 145.511 L 105.415 145.436 94.508 145.370 C 85.987 145.319,83.573 145.380,83.471 145.648 M202.124 145.509 L 212.746 145.586 212.818 181.155 L 212.889 216.724 212.887 181.083 L 212.886 145.442 202.193 145.437 L 191.501 145.432 202.124 145.509 M219.328 181.097 L 219.328 216.890 220.757 216.807 L 222.187 216.724 231.171 181.905 C 236.112 162.755,240.233 146.686,240.328 146.196 L 240.500 145.305 229.914 145.305 L 219.328 145.305 219.328 181.097 M134.954 193.486 L 134.887 216.855 123.989 216.929 L 113.091 217.004 123.998 217.070 C 132.519 217.121,134.933 217.060,135.035 216.792 C 135.107 216.604,135.133 206.025,135.093 193.283 L 135.021 170.117 134.954 193.486 M171.207 193.557 C 171.207 206.450,171.241 211.724,171.282 205.278 C 171.323 198.831,171.323 188.283,171.282 181.837 C 171.241 175.391,171.207 180.665,171.207 193.557 M257.568 193.557 C 257.568 206.450,257.601 211.724,257.642 205.278 C 257.683 198.831,257.683 188.283,257.642 181.837 C 257.601 175.391,257.568 180.665,257.568 193.557 M321.999 193.397 C 322.001 213.857,322.051 216.692,322.413 216.790 C 322.715 216.873,322.734 216.839,322.483 216.661 C 322.216 216.472,322.126 211.353,322.069 193.268 L 321.997 170.117 321.999 193.397 M293.751 206.169 C 293.751 212.125,293.787 214.561,293.831 211.583 C 293.875 208.605,293.875 203.732,293.831 200.754 C 293.787 197.776,293.751 200.212,293.751 206.169 " stroke="none" fill="#0054a5" fill-rule="evenodd"></path><path id="path1" d="M83.619 181.220 C 83.619 200.822,83.720 216.861,83.843 216.861 C 91.536 216.861,100.672 209.733,103.537 201.496 C 105.127 196.922,105.084 197.719,105.200 170.596 L 105.307 145.579 94.463 145.579 L 83.619 145.579 83.619 181.220 M191.920 146.470 C 192.050 146.960,195.933 162.042,200.548 179.986 C 205.162 197.930,209.192 213.568,209.503 214.736 L 210.067 216.861 211.408 216.861 L 212.748 216.861 212.748 181.220 L 212.748 145.579 202.215 145.579 L 191.682 145.579 191.920 146.470 M132.984 170.552 C 124.097 171.702,116.984 177.708,114.020 186.566 C 113.384 188.465,113.376 188.638,113.289 202.673 L 113.201 216.861 124.044 216.861 L 134.887 216.861 134.887 193.557 C 134.887 180.740,134.856 170.269,134.818 170.288 C 134.781 170.307,133.955 170.426,132.984 170.552 M141.467 193.583 L 141.467 216.861 152.296 216.861 L 163.125 216.861 163.125 203.588 C 163.125 193.306,163.038 189.862,162.739 188.304 C 160.844 178.436,153.139 171.587,142.632 170.434 L 141.467 170.306 141.467 193.583 M171.350 193.557 L 171.350 216.861 178.890 216.861 L 186.429 216.861 186.429 193.557 L 186.429 170.254 178.890 170.254 L 171.350 170.254 171.350 193.557 M256.340 170.451 C 248.678 171.326,241.520 176.535,238.120 183.712 C 231.527 197.628,240.563 214.463,255.741 216.538 L 257.437 216.770 257.437 193.512 C 257.437 180.720,257.406 170.273,257.368 170.297 C 257.330 170.322,256.868 170.391,256.340 170.451 M264.016 193.570 L 264.016 216.861 274.846 216.861 L 285.675 216.861 285.675 203.451 C 285.675 193.051,285.588 189.590,285.289 188.030 C 283.399 178.187,275.889 171.523,265.456 170.430 L 264.016 170.279 264.016 193.570 M313.040 170.549 C 304.106 171.860,296.625 177.623,294.384 184.921 C 293.703 187.140,293.727 185.903,293.831 213.502 L 293.900 231.666 304.729 231.666 L 315.559 231.666 315.559 200.960 C 315.559 171.886,315.533 170.255,315.079 170.287 C 314.815 170.305,313.898 170.423,313.040 170.549 M322.138 193.427 L 322.138 216.587 323.054 216.587 C 326.086 216.587,331.963 214.117,335.089 211.529 C 348.874 200.118,345.379 178.338,328.718 171.826 C 327.124 171.203,325.998 170.924,323.029 170.419 L 322.138 170.267 322.138 193.427 " stroke="none" fill="#fbfbfb" fill-rule="evenodd"></path><path id="path2" d="M176.272 144.017 C 171.781 145.287,168.847 149.969,169.688 154.521 C 171.738 165.609,187.960 164.240,187.931 152.981 C 187.915 146.750,182.185 142.345,176.272 144.017 " stroke="none" fill="#ec1c24" fill-rule="evenodd"></path><path id="path3" d="M53.735 169.395 C 53.735 199.310,53.743 199.399,56.613 205.072 C 60.585 212.923,69.125 218.506,77.165 218.506 L 78.684 218.506 78.684 181.083 L 78.684 143.660 66.210 143.660 L 53.735 143.660 53.735 169.395 M81.700 181.123 L 81.700 218.586 84.236 218.433 C 93.425 217.875,101.965 211.199,105.150 202.081 C 106.814 197.319,106.736 198.790,106.845 170.048 L 106.946 143.660 94.323 143.660 L 81.700 143.660 81.700 181.123 M189.445 143.769 C 189.445 143.848,206.199 209.033,208.390 217.478 L 208.657 218.506 211.662 218.506 L 214.668 218.506 214.668 181.083 L 214.668 143.660 202.056 143.660 C 195.120 143.660,189.445 143.709,189.445 143.769 M217.683 181.092 L 217.683 218.524 220.613 218.447 L 223.543 218.369 232.950 181.905 C 238.123 161.851,242.432 145.041,242.525 144.551 L 242.693 143.660 230.188 143.660 L 217.683 143.660 217.683 181.092 M77.039 181.083 L 77.039 216.861 76.422 216.859 C 69.934 216.839,61.605 211.102,58.123 204.255 C 55.425 198.950,55.380 198.393,55.380 169.944 L 55.380 145.305 66.210 145.305 L 77.039 145.305 77.039 181.083 M105.276 169.363 C 105.274 197.661,105.190 198.701,102.468 204.112 C 98.955 211.096,90.664 216.861,84.132 216.861 L 83.345 216.861 83.345 181.266 C 83.345 161.688,83.427 145.588,83.528 145.488 C 83.628 145.387,88.563 145.305,94.494 145.305 L 105.278 145.305 105.276 169.363 M212.955 181.151 L 213.025 216.861 211.534 216.861 C 210.355 216.861,210.013 216.761,209.894 216.381 C 209.769 215.978,192.326 148.316,191.765 146.056 L 191.577 145.299 202.231 145.370 L 212.886 145.442 212.955 181.151 M240.328 146.196 C 240.233 146.686,236.112 162.755,231.171 181.905 L 222.187 216.724 220.757 216.807 L 219.328 216.890 219.328 181.097 L 219.328 145.305 229.914 145.305 L 240.500 145.305 240.328 146.196 M131.696 169.013 C 121.975 170.778,114.345 177.804,112.134 187.027 C 111.623 189.159,111.587 190.271,111.585 204.044 L 111.583 218.780 124.195 218.780 L 136.806 218.780 136.806 193.694 L 136.806 168.609 135.230 168.633 C 134.363 168.647,132.772 168.818,131.696 169.013 M139.822 193.557 L 139.822 218.506 152.296 218.506 L 164.770 218.506 164.770 203.964 C 164.770 187.938,164.704 187.127,163.060 183.167 C 159.553 174.718,150.361 168.609,141.157 168.609 L 139.822 168.609 139.822 193.557 M169.431 193.557 L 169.431 218.506 178.753 218.506 L 188.074 218.506 188.074 193.557 L 188.074 168.609 178.753 168.609 L 169.431 168.609 169.431 193.557 M253.873 169.139 C 237.150 172.671,228.847 192.175,237.889 206.683 C 242.198 213.596,250.480 218.484,257.916 218.502 L 259.356 218.506 259.356 193.557 L 259.356 168.609 257.779 168.628 C 256.912 168.639,255.154 168.869,253.873 169.139 M262.371 193.516 L 262.371 218.506 274.857 218.506 L 287.342 218.506 287.254 203.084 C 287.160 186.357,287.204 186.883,285.557 182.805 C 282.299 174.739,274.414 169.354,264.907 168.700 L 262.371 168.526 262.371 193.516 M312.954 168.802 C 303.616 170.070,295.671 175.973,292.858 183.733 L 292.129 185.744 292.031 198.903 C 291.977 206.141,292.020 216.905,292.126 222.824 L 292.319 233.585 304.761 233.585 L 317.204 233.585 317.204 201.097 L 317.204 168.609 315.490 168.650 C 314.548 168.672,313.406 168.741,312.954 168.802 M320.219 193.516 L 320.219 218.506 321.280 218.506 C 330.608 218.506,340.529 211.414,343.783 202.420 C 349.498 186.626,338.982 169.858,322.632 168.698 L 320.219 168.527 320.219 193.516 M135.094 193.626 L 135.024 216.998 124.113 217.070 L 113.201 217.141 113.283 202.676 L 113.365 188.211 114.222 185.818 C 117.346 177.086,125.528 170.835,134.546 170.291 L 135.164 170.254 135.094 193.626 M146.676 171.109 C 154.680 173.103,161.006 179.680,162.710 187.781 C 163.049 189.391,163.125 192.255,163.125 203.308 L 163.125 216.861 152.296 216.861 L 141.467 216.861 141.467 193.538 L 141.467 170.214 143.043 170.406 C 143.910 170.511,145.545 170.827,146.676 171.109 M186.429 193.557 L 186.429 216.861 178.753 216.861 L 171.076 216.861 171.076 193.557 L 171.076 170.254 178.753 170.254 L 186.429 170.254 186.429 193.557 M257.711 193.557 C 257.711 214.372,257.666 216.861,257.288 216.861 C 250.060 216.861,240.926 210.236,237.700 202.654 C 231.579 188.271,241.809 171.316,257.231 170.286 C 257.684 170.255,257.711 171.534,257.711 193.557 M269.500 171.105 C 277.286 173.051,283.227 179.090,285.114 186.977 C 285.636 189.160,285.671 190.183,285.673 203.084 L 285.675 216.861 274.846 216.861 L 264.016 216.861 264.016 193.530 L 264.016 170.200 265.730 170.396 C 266.672 170.503,268.369 170.823,269.500 171.105 M315.559 200.960 L 315.559 231.666 304.774 231.666 L 293.989 231.666 293.807 220.517 C 293.497 201.491,293.581 188.195,294.023 186.110 C 295.751 177.954,305.426 170.584,314.805 170.278 L 315.559 170.254 315.559 200.960 M326.234 170.983 C 341.525 174.954,348.583 192.805,340.066 205.970 C 336.254 211.862,329.447 216.142,323.098 216.638 L 322.001 216.724 321.931 193.463 L 321.861 170.202 323.302 170.399 C 324.095 170.507,325.414 170.770,326.234 170.983 M320.905 243.104 C 320.603 243.814,320.315 244.492,320.265 244.610 C 319.877 245.522,322.238 244.705,323.298 243.562 C 324.884 241.850,324.878 241.809,323.052 241.810 L 321.453 241.812 320.905 243.104 M54.010 247.461 C 54.010 254.916,54.742 256.066,59.493 256.066 C 64.235 256.066,64.976 254.887,64.976 247.343 L 64.976 242.084 63.468 242.084 L 61.960 242.084 61.960 246.869 C 61.960 252.871,61.445 254.004,58.981 253.422 C 57.130 252.986,57.025 252.647,57.025 247.108 L 57.025 242.084 55.517 242.084 L 54.010 242.084 54.010 247.461 M79.232 243.317 L 79.232 244.551 80.740 244.551 L 82.248 244.551 82.248 243.317 L 82.248 242.084 80.740 242.084 L 79.232 242.084 79.232 243.317 M123.646 243.317 L 123.646 244.551 125.154 244.551 L 126.662 244.551 126.662 243.317 L 126.662 242.084 125.154 242.084 L 123.646 242.084 123.646 243.317 M135.435 244.308 L 135.435 246.533 134.759 246.090 C 132.998 244.936,129.904 245.837,128.968 247.777 C 126.705 252.463,130.584 257.715,134.685 255.517 C 135.535 255.061,135.709 255.038,135.709 255.380 C 135.709 255.691,136.044 255.792,137.080 255.792 L 138.451 255.792 138.451 248.938 L 138.451 242.084 136.943 242.084 L 135.435 242.084 135.435 244.308 M157.642 244.308 L 157.642 246.533 156.966 246.090 C 154.083 244.201,150.673 246.709,150.668 250.723 C 150.664 254.957,153.648 257.256,156.892 255.517 C 157.742 255.061,157.916 255.038,157.916 255.380 C 157.916 255.691,158.251 255.792,159.287 255.792 L 160.658 255.792 160.658 248.938 L 160.658 242.084 159.150 242.084 L 157.642 242.084 157.642 244.308 M185.058 244.292 L 185.058 246.501 184.449 246.074 C 182.676 244.833,179.467 245.899,178.578 248.025 C 176.608 252.741,180.610 257.857,184.441 255.520 C 185.168 255.077,185.332 255.052,185.332 255.384 C 185.332 255.690,185.674 255.792,186.703 255.792 L 188.074 255.792 188.074 248.938 L 188.074 242.084 186.566 242.084 L 185.058 242.084 185.058 244.292 M205.954 242.426 C 206.019 242.615,207.111 245.699,208.379 249.280 L 210.687 255.792 212.337 255.792 L 213.988 255.792 216.295 249.280 C 217.564 245.699,218.655 242.615,218.720 242.426 C 218.806 242.178,218.397 242.084,217.226 242.084 L 215.614 242.084 214.149 246.539 C 213.343 248.989,212.606 251.080,212.511 251.184 C 212.415 251.289,211.615 249.284,210.733 246.729 L 209.128 242.084 207.482 242.084 C 206.285 242.084,205.868 242.177,205.954 242.426 M229.472 248.938 L 229.472 255.792 230.980 255.792 L 232.488 255.792 232.488 248.938 L 232.488 242.084 230.980 242.084 L 229.472 242.084 229.472 248.938 M257.162 244.284 L 257.162 246.484 256.354 246.066 C 254.401 245.056,251.625 245.819,250.689 247.623 C 248.304 252.217,252.336 257.920,256.271 255.520 C 256.998 255.077,257.162 255.052,257.162 255.384 C 257.162 255.690,257.504 255.792,258.533 255.792 L 259.904 255.792 259.904 248.938 L 259.904 242.084 258.533 242.084 L 257.162 242.084 257.162 244.284 M279.095 248.938 L 279.095 255.792 280.603 255.792 L 282.111 255.792 282.111 253.365 L 282.111 250.939 284.588 250.763 C 288.554 250.482,289.785 249.432,289.785 246.333 C 289.785 242.808,288.644 242.084,283.084 242.084 L 279.095 242.084 279.095 248.938 M325.703 248.938 L 325.703 255.792 327.073 255.792 C 328.166 255.792,328.444 255.700,328.444 255.338 C 328.444 254.931,328.501 254.936,328.997 255.384 C 329.906 256.207,332.215 256.254,333.364 255.472 C 338.277 252.133,334.450 243.378,329.253 246.066 L 328.444 246.484 328.444 244.284 L 328.444 242.084 327.073 242.084 L 325.703 242.084 325.703 248.938 M286.049 245.119 C 287.723 246.436,286.416 248.115,283.719 248.115 L 282.111 248.115 282.111 246.333 L 282.111 244.551 283.719 244.551 C 284.931 244.551,285.505 244.691,286.049 245.119 M67.718 250.720 L 67.718 255.792 69.066 255.792 L 70.414 255.792 70.505 252.340 C 70.604 248.579,70.937 247.841,72.530 247.841 C 73.730 247.841,74.023 248.740,74.023 252.426 L 74.023 255.792 75.394 255.792 L 76.765 255.792 76.765 251.521 L 76.765 247.250 75.964 246.449 C 74.930 245.415,72.588 245.304,71.108 246.218 L 70.185 246.789 70.185 246.218 C 70.185 245.725,70.018 245.648,68.951 245.648 L 67.718 245.648 67.718 250.720 M79.232 250.720 L 79.232 255.792 80.740 255.792 L 82.248 255.792 82.248 250.720 L 82.248 245.648 80.740 245.648 L 79.232 245.648 79.232 250.720 M83.345 245.937 C 83.345 246.172,84.342 248.696,87.106 255.462 C 87.205 255.703,87.691 255.792,88.616 255.736 L 89.980 255.655 91.742 251.268 C 94.178 245.204,94.131 245.648,92.336 245.648 L 90.850 245.648 89.770 248.661 C 88.460 252.320,88.641 252.320,87.364 248.662 L 86.312 245.648 84.828 245.648 C 83.971 245.648,83.345 245.770,83.345 245.937 M96.491 246.265 C 93.724 248.131,93.615 253.336,96.302 255.339 C 98.589 257.044,103.624 255.545,103.632 253.156 C 103.634 252.437,101.128 252.462,100.456 253.187 C 99.653 254.054,98.858 254.058,98.000 253.200 C 96.663 251.862,96.983 251.679,100.655 251.679 L 103.982 251.679 103.798 250.112 C 103.442 247.081,101.936 245.648,99.109 245.648 C 97.798 245.648,97.198 245.789,96.491 246.265 M105.552 250.720 L 105.552 255.792 107.060 255.792 L 108.568 255.792 108.568 252.789 C 108.568 248.803,109.196 247.552,110.774 248.396 C 111.469 248.768,111.400 248.837,111.931 247.244 C 112.309 246.111,112.311 245.944,111.949 245.805 C 111.110 245.483,109.289 245.654,108.795 246.101 C 108.328 246.524,108.293 246.524,108.293 246.101 C 108.293 245.740,108.015 245.648,106.923 245.648 L 105.552 245.648 105.552 250.720 M114.043 246.115 C 111.181 248.087,112.309 250.893,116.398 251.974 C 118.180 252.444,118.711 252.694,118.711 253.062 C 118.711 254.142,116.273 254.207,115.441 253.150 C 114.926 252.495,114.753 252.444,113.592 252.603 C 111.978 252.824,111.961 252.845,112.579 253.899 C 114.192 256.655,119.598 256.950,121.172 254.369 C 122.580 252.059,121.476 250.393,117.891 249.417 C 115.342 248.723,114.690 248.056,116.253 247.743 C 117.118 247.570,118.067 247.904,118.574 248.559 C 119.007 249.118,121.436 248.518,121.269 247.894 C 120.846 246.319,119.550 245.648,116.929 245.648 C 115.297 245.648,114.544 245.770,114.043 246.115 M123.646 250.720 L 123.646 255.792 125.154 255.792 L 126.662 255.792 126.662 250.720 L 126.662 245.648 125.154 245.648 L 123.646 245.648 123.646 250.720 M142.023 245.998 C 141.386 246.321,140.096 247.937,140.096 248.413 C 140.096 248.997,142.594 249.004,143.213 248.423 C 144.043 247.643,145.455 247.644,145.872 248.424 C 146.273 249.173,146.005 249.343,143.779 249.764 C 141.468 250.200,140.477 250.848,140.076 252.188 C 139.211 255.074,142.717 257.224,145.511 255.520 C 146.238 255.077,146.402 255.052,146.402 255.384 C 146.402 255.696,146.762 255.792,147.939 255.792 C 149.302 255.792,149.452 255.737,149.261 255.312 C 149.142 255.048,148.960 253.043,148.856 250.857 C 148.635 246.204,148.797 246.859,147.704 246.193 C 146.654 245.553,143.142 245.432,142.023 245.998 M164.209 246.265 C 161.441 248.131,161.333 253.336,164.019 255.339 C 166.307 257.044,171.341 255.545,171.349 253.156 C 171.352 252.437,168.846 252.462,168.173 253.187 C 167.370 254.054,166.576 254.058,165.717 253.200 C 164.380 251.862,164.700 251.679,168.373 251.679 L 171.701 251.679 171.535 250.282 C 171.062 246.287,167.265 244.206,164.209 246.265 M192.103 246.282 C 188.673 248.358,189.013 254.174,192.653 255.695 C 197.362 257.663,201.829 252.879,199.593 248.262 C 198.383 245.761,194.611 244.764,192.103 246.282 M220.086 246.077 C 219.390 246.455,218.506 247.731,218.506 248.359 C 218.506 248.996,220.989 249.038,221.429 248.408 C 221.947 247.670,223.628 247.706,224.098 248.466 C 224.496 249.108,224.221 249.266,221.659 249.870 C 218.626 250.586,217.513 252.270,218.559 254.566 C 219.222 256.020,221.707 256.524,223.655 255.600 C 224.376 255.257,224.667 255.221,224.747 255.462 C 224.815 255.665,225.432 255.792,226.352 255.792 C 227.738 255.792,227.826 255.754,227.567 255.268 C 227.413 254.981,227.251 253.056,227.208 250.991 L 227.129 247.236 226.240 246.442 C 225.189 245.503,221.542 245.287,220.086 246.077 M236.109 246.235 C 233.236 248.074,233.372 253.993,236.322 255.559 C 238.825 256.887,243.454 255.255,243.454 253.045 C 243.454 252.388,240.658 252.497,240.125 253.175 C 239.218 254.329,237.707 253.985,237.192 252.508 L 236.903 251.679 240.179 251.679 L 243.454 251.679 243.454 250.504 C 243.454 246.713,239.212 244.248,236.109 246.235 M264.565 245.942 C 260.763 247.536,260.591 253.559,264.293 255.466 C 268.950 257.865,273.810 253.041,271.545 248.267 C 270.522 246.112,266.976 244.931,264.565 245.942 M293.129 246.019 C 292.454 246.394,291.437 247.764,291.434 248.304 C 291.431 248.970,293.877 249.066,294.476 248.423 C 295.370 247.463,297.351 247.760,297.147 248.823 C 297.072 249.210,296.537 249.443,294.858 249.819 C 292.155 250.425,291.158 251.304,291.158 253.082 C 291.158 255.527,294.201 256.917,296.712 255.618 C 297.310 255.309,297.609 255.267,297.680 255.481 C 297.740 255.661,298.405 255.792,299.262 255.792 C 300.736 255.792,300.740 255.789,300.473 255.088 C 300.326 254.702,300.205 253.067,300.204 251.456 C 300.201 246.356,299.672 245.640,295.914 245.657 C 294.695 245.663,293.488 245.819,293.129 246.019 M302.399 250.720 L 302.399 255.792 303.735 255.792 L 305.072 255.792 305.191 252.670 C 305.353 248.432,305.733 247.826,307.848 248.420 C 308.416 248.580,309.184 246.220,308.669 245.894 C 308.031 245.490,306.177 245.617,305.642 246.101 C 305.175 246.524,305.141 246.524,305.141 246.101 C 305.141 245.740,304.862 245.648,303.770 245.648 L 302.399 245.648 302.399 250.720 M310.984 246.168 C 309.139 247.323,309.044 248.557,310.780 248.818 C 311.866 248.981,312.086 248.928,312.440 248.423 C 313.132 247.436,315.284 247.755,315.284 248.845 C 315.284 249.035,314.760 249.319,314.119 249.476 C 309.902 250.509,309.253 250.987,309.253 253.058 C 309.253 255.609,312.045 256.965,314.577 255.645 C 315.126 255.359,315.467 255.316,315.660 255.509 C 316.290 256.139,318.659 255.854,318.439 255.175 C 318.329 254.836,318.160 252.865,318.064 250.795 C 317.839 245.954,317.740 245.822,314.249 245.703 C 312.242 245.634,311.717 245.709,310.984 246.168 M320.493 250.720 L 320.493 255.792 321.864 255.792 L 323.235 255.792 323.235 250.720 L 323.235 245.648 321.864 245.648 L 320.493 245.648 320.493 250.720 M338.523 246.077 C 337.827 246.455,336.943 247.731,336.943 248.359 C 336.943 248.985,339.425 249.039,339.856 248.423 C 340.601 247.360,343.057 247.888,342.623 249.018 C 342.547 249.217,341.491 249.593,340.278 249.854 C 337.614 250.427,336.669 251.276,336.669 253.098 C 336.669 255.522,339.356 256.783,342.088 255.642 C 342.744 255.368,343.137 255.319,343.199 255.505 C 343.251 255.662,343.970 255.792,344.796 255.792 C 345.931 255.792,346.243 255.708,346.078 255.449 C 345.957 255.260,345.791 253.334,345.709 251.168 L 345.560 247.230 344.674 246.439 C 343.627 245.503,339.976 245.288,338.523 246.077 M100.343 248.389 C 101.375 249.422,101.071 249.760,99.109 249.760 C 97.165 249.760,97.046 249.643,97.895 248.563 C 98.578 247.695,99.578 247.624,100.343 248.389 M134.606 248.382 C 135.768 249.545,135.692 252.210,134.466 253.265 C 132.776 254.719,130.926 252.647,131.445 249.882 C 131.794 248.022,133.457 247.233,134.606 248.382 M156.813 248.382 C 157.975 249.545,157.899 252.210,156.673 253.265 C 154.983 254.719,153.133 252.647,153.652 249.882 C 154.001 248.022,155.664 247.233,156.813 248.382 M168.060 248.389 C 169.093 249.422,168.788 249.760,166.827 249.760 C 164.883 249.760,164.764 249.643,165.613 248.563 C 166.296 247.695,167.295 247.624,168.060 248.389 M184.490 248.563 C 185.419 249.744,185.291 252.037,184.238 253.090 C 182.961 254.367,181.661 253.777,181.196 251.709 C 180.544 248.808,182.907 246.551,184.490 248.563 M196.504 248.838 C 197.406 249.829,197.376 251.998,196.448 252.925 C 194.834 254.540,192.735 253.258,192.735 250.657 C 192.735 248.194,194.948 247.126,196.504 248.838 M239.943 248.321 C 240.982 249.530,240.819 249.760,238.922 249.760 C 237.448 249.760,237.149 249.683,237.149 249.302 C 237.149 248.041,239.111 247.352,239.943 248.321 M256.263 248.458 C 257.020 249.282,257.260 250.573,256.903 251.899 C 256.076 254.969,253.050 254.050,253.050 250.728 C 253.050 248.255,254.885 246.958,256.263 248.458 M267.692 248.153 C 269.988 249.199,269.345 253.598,266.895 253.598 C 264.533 253.598,263.746 249.424,265.889 248.260 C 266.791 247.771,266.845 247.767,267.692 248.153 M331.727 248.382 C 332.890 249.545,332.813 252.210,331.587 253.265 C 330.435 254.257,329.209 253.700,328.684 251.947 C 327.854 249.176,330.003 246.658,331.727 248.382 M145.645 253.021 C 144.753 254.221,142.838 254.042,142.838 252.758 C 142.838 252.143,143.113 251.967,144.722 251.553 C 146.227 251.165,146.592 251.746,145.645 253.021 M224.263 252.212 C 224.263 253.641,221.902 254.548,221.268 253.362 C 220.909 252.691,221.397 252.021,222.481 251.697 C 223.978 251.251,224.263 251.333,224.263 252.212 M297.190 252.137 C 297.190 253.107,296.460 253.873,295.536 253.873 C 293.920 253.873,293.724 252.294,295.274 251.763 C 296.815 251.236,297.190 251.309,297.190 252.137 M315.284 252.090 C 315.284 253.603,312.930 254.561,312.266 253.319 C 311.893 252.623,312.107 252.272,313.193 251.800 C 314.588 251.193,315.284 251.290,315.284 252.090 M342.700 252.137 C 342.700 253.107,341.971 253.873,341.047 253.873 C 339.431 253.873,339.234 252.294,340.785 251.763 C 342.326 251.236,342.700 251.309,342.700 252.137 " stroke="none" fill="#231f20" fill-rule="evenodd"></path></g></svg>