<svg xmlns="http://www.w3.org/2000/svg" width="245" height="35" viewBox="0 0 245 35" fill="none" class="block w-auto h-6"><path fill="#000" d="M49.686 28.533h4.883v-9.055h9.863v9.055h4.915V7.029h-4.915v8.601h-9.863V7.03h-4.883v21.504ZM80.977 29.05c6.468 0 8.958-4.14 8.958-8.634 0-4.43-2.49-8.57-8.958-8.57-6.435 0-8.957 4.107-8.957 8.57 0 4.527 2.522 8.634 8.957 8.634Zm-4.139-8.602c0-3.589 1.229-4.85 4.14-4.85 2.942 0 4.17 1.261 4.17 4.85 0 3.59-1.228 4.85-4.17 4.85-2.911 0-4.14-1.26-4.14-4.85ZM91.725 20.448c0 4.527 2.652 8.602 8.958 8.602 5.691 0 8.375-3.395 8.472-7.179h-4.657c-.194 1.94-1.325 3.428-3.88 3.428-2.587 0-4.075-1.197-4.075-4.85 0-3.622 1.553-4.851 4.14-4.851 2.457 0 3.557 1.326 3.718 3.33h4.657c-.129-3.977-2.878-7.081-8.472-7.081-6.274 0-8.86 4.074-8.86 8.601ZM117.366 29.05c2.91 0 4.721-1.455 5.723-3.622v3.105h4.786V12.364h-4.786v7.34c0 3.655-1.487 5.433-3.88 5.433-2.037 0-3.169-1.035-3.169-3.59v-9.183h-4.786v9.895c0 4.236 1.876 6.791 6.112 6.791ZM134.677 23.262h-4.365c.097 3.072 2.263 5.788 8.019 5.788 5.562 0 7.567-2.199 7.567-5.368 0-2.878-1.455-4.527-5.303-5.012l-3.395-.388c-1.617-.194-2.038-.841-2.038-1.65 0-1.034.841-1.81 2.911-1.81 2.005 0 3.007.938 3.169 2.263h4.43c-.291-3.557-3.234-5.27-7.599-5.27-4.301 0-7.341 1.68-7.341 5.27 0 2.717 1.649 4.334 4.689 4.721l3.622.453c1.811.227 2.263.938 2.263 1.908 0 1.132-.743 1.876-2.91 1.876-2.425 0-3.589-1.23-3.719-2.781ZM159.131 29.05c5.271 0 7.437-4.01 7.437-8.602 0-4.656-2.166-8.601-7.437-8.601-2.781 0-4.657 1.067-5.789 2.91v-2.393h-4.785V35h4.785v-8.893c1.132 1.844 3.008 2.943 5.789 2.943Zm-5.789-8.602c0-3.298 1.294-4.85 4.301-4.85 3.04 0 4.139 1.487 4.139 4.85 0 3.331-1.099 4.85-4.139 4.85-3.007 0-4.301-1.551-4.301-4.85ZM177.357 29.05c6.467 0 8.957-4.14 8.957-8.634 0-4.43-2.49-8.57-8.957-8.57-6.435 0-8.958 4.107-8.958 8.57 0 4.527 2.523 8.634 8.958 8.634Zm-4.14-8.602c0-3.589 1.229-4.85 4.14-4.85 2.942 0 4.171 1.261 4.171 4.85 0 3.59-1.229 4.85-4.171 4.85-2.911 0-4.14-1.26-4.14-4.85ZM188.105 20.448c0 4.527 2.651 8.602 8.957 8.602 5.691 0 8.375-3.395 8.472-7.179h-4.656c-.194 1.94-1.326 3.428-3.881 3.428-2.587 0-4.074-1.197-4.074-4.85 0-3.622 1.552-4.851 4.139-4.851 2.458 0 3.557 1.326 3.719 3.33h4.656c-.129-3.977-2.878-7.081-8.472-7.081-6.273 0-8.86 4.074-8.86 8.601ZM213.745 29.05c2.91 0 4.721-1.455 5.724-3.622v3.105h4.786V12.364h-4.786v7.34c0 3.655-1.488 5.433-3.881 5.433-2.037 0-3.169-1.035-3.169-3.59v-9.183h-4.786v9.895c0 4.236 1.876 6.791 6.112 6.791ZM231.057 23.262h-4.366c.097 3.072 2.264 5.788 8.02 5.788 5.562 0 7.567-2.199 7.567-5.368 0-2.878-1.456-4.527-5.304-5.012l-3.395-.388c-1.617-.194-2.037-.841-2.037-1.65 0-1.034.84-1.81 2.91-1.81 2.005 0 3.007.938 3.169 2.263h4.43c-.291-3.557-3.233-5.27-7.599-5.27-4.301 0-7.34 1.68-7.34 5.27 0 2.717 1.649 4.334 4.688 4.721l3.622.453c1.811.227 2.264.938 2.264 1.908 0 1.132-.744 1.876-2.911 1.876-2.425 0-3.589-1.23-3.718-2.781ZM16.109 34.183c.159.005 1.194.124 2.551 0 5.102-.463 9.694-2.55 13.775-9.183-3.061 4.591-8.772 8.006-14.663 7.775-8.83-.346-16.092-7.784-15.717-16.48.347-8.067 7.372-14.746 15.631-14.376 7.622.341 13.87 6.783 13.497 14.28-.341 6.877-6.356 12.558-13.398 12.19-6.413-.335-11.648-5.781-11.279-12.079.335-5.688 5.34-10.371 11.162-10.006 5.209.326 9.43 4.78 9.064 9.873-.323 4.503-4.322 8.189-8.92 7.828-4.007-.314-7.214-3.775-6.856-7.66.307-3.324 3.301-6.01 6.67-5.659 2.814.294 5.004 2.766 4.66 5.433-.28 2.158-2.274 3.842-4.396 3.51-1.647-.259-2.805-1.748-2.5-3.164.101-.469.401-.92.801-1.204.387-.274.817-.361 1.236-.23a.975.975 0 0 1 .338.2l-.02-.001h-.013a1.02 1.02 0 0 0-1.02 1.02c0 .413.158.892.614 1.183.39.25.805.234 1.05.194.269-.045.518-.147.722-.266.19-.11.433-.291.604-.557.548-.847.386-1.756 0-2.403a3.057 3.057 0 0 0-1.665-1.317c-1.123-.353-2.207-.068-3.026.513a4.09 4.09 0 0 0-1.616 2.438c-.61 2.837 1.671 5.216 4.18 5.61 3.415.535 6.33-2.135 6.735-5.264.515-3.985-2.707-7.331-6.472-7.725-4.6-.48-8.512 3.148-8.914 7.5-.476 5.16 3.731 9.492 8.728 9.884 5.797.454 10.716-4.155 11.116-9.717.455-6.341-4.751-11.666-10.972-12.056-7-.44-12.93 5.158-13.327 11.923-.442 7.529 5.769 13.848 13.21 14.237 8.206.43 15.147-6.16 15.543-14.126.165-3.322-.781-6.44-2.494-9.049C27.58 2.861 22.434 0 16.619 0c-1.404 0-2.77.167-4.077.482C5.58 2.439.335 8.807.016 16.206c-.404 9.385 6.923 16.834 16.093 17.977Z"></path></svg>