<svg viewBox="0 0 4951 1297" fill="none" xmlns="http://www.w3.org/2000/svg">
<path d="M637.07 252.05V716.58C637.07 846.41 531.83 951.65 402 951.65C272.17 951.65 166.93 846.41 166.93 716.58V252.05H333.23V716.58C333.23 725.611 335.008 734.554 338.465 742.897C341.921 751.241 346.986 758.822 353.372 765.208C359.758 771.594 367.339 776.659 375.683 780.115C384.026 783.571 392.969 785.35 402 785.35C411.031 785.35 419.973 783.571 428.317 780.115C436.66 776.659 444.242 771.594 450.627 765.208C457.013 758.822 462.079 751.241 465.535 742.897C468.991 734.554 470.77 725.611 470.77 716.58V252.05H637.07Z" fill="#35495E"/>
<path d="M803.361 252.05V716.58C803.361 938.25 623.671 1118 402.001 1118C180.331 1118 0.640625 938.25 0.640625 716.58V252.05H166.931V716.58C166.931 846.41 272.181 951.65 402.001 951.65C531.821 951.65 637.071 846.41 637.071 716.58V252.05H803.361Z" fill="#41B883"/>
<path d="M1342.55 998L1065.14 311.81H1247.47L1442.54 822.531L1641.54 311.81H1817.01L1535.67 998H1342.55ZM2017.97 1007.8C1977.45 1007.8 1941.51 998.98 1910.14 981.335C1879.42 963.69 1855.24 939.184 1837.6 907.815C1819.95 875.793 1811.13 839.523 1811.13 799.005V479.436H1969.94V777.439C1969.94 805.54 1978.43 828.413 1995.42 846.058C2013.07 863.049 2035.94 871.545 2064.04 871.545C2084.3 871.545 2102.27 867.951 2117.96 860.762C2133.64 853.573 2146.71 843.444 2157.17 830.374V479.436H2315.97V998H2157.17V962.71C2117.96 992.772 2071.56 1007.8 2017.97 1007.8ZM2673.11 1007.8C2620.18 1007.8 2572.14 996.039 2529.01 972.513C2486.53 948.333 2452.88 915.984 2428.04 875.466C2403.21 834.948 2390.79 789.529 2390.79 739.208C2390.79 688.888 2402.56 643.469 2426.08 602.951C2450.26 562.433 2482.94 530.411 2524.11 506.884C2565.28 482.704 2611.03 470.614 2661.35 470.614C2712.32 470.614 2757.42 483.031 2796.63 507.864C2835.84 532.044 2866.55 565.374 2888.77 607.852C2911.65 650.33 2923.08 699.017 2923.08 753.912V793.123H2553.52C2560.71 809.461 2570.18 823.838 2581.95 836.255C2594.36 848.672 2609.07 858.475 2626.06 865.663C2643.05 872.199 2661.35 875.466 2680.95 875.466C2702.52 875.466 2722.13 872.199 2739.77 865.663C2757.42 858.475 2772.45 848.672 2784.86 836.255L2889.75 929.381C2857.08 956.829 2823.42 976.761 2788.78 989.178C2754.8 1001.59 2716.24 1007.8 2673.11 1007.8ZM2550.58 682.353H2767.22C2761.99 665.361 2753.82 650.984 2742.71 639.221C2732.26 626.804 2719.84 617.328 2705.46 610.793C2691.08 603.604 2675.4 600.01 2658.41 600.01C2640.76 600.01 2624.75 603.277 2610.38 609.813C2596 616.348 2583.58 625.824 2573.12 638.24C2563.32 650.004 2555.81 664.708 2550.58 682.353ZM3498.54 1007.8C3435.15 1007.8 3379.93 995.386 3332.87 970.552C3286.47 945.065 3250.53 909.122 3225.04 862.723C3199.56 816.323 3186.81 761.755 3186.81 699.017V311.81H3355.42V699.017C3355.42 729.732 3361.3 756.853 3373.06 780.38C3384.83 803.253 3401.49 820.898 3423.06 833.314C3445.28 845.731 3470.76 851.94 3499.52 851.94C3528.93 851.94 3554.09 845.731 3575 833.314C3596.57 820.898 3613.23 803.253 3624.99 780.38C3636.76 756.853 3642.64 729.732 3642.64 699.017V311.81H3811.25V699.017C3811.25 761.101 3798.18 815.343 3772.04 861.742C3746.55 908.142 3710.28 944.085 3663.22 969.572C3616.83 995.059 3561.93 1007.8 3498.54 1007.8ZM4117.37 1007.8C4068.35 1007.8 4022.93 1002.25 3981.11 991.138C3939.28 979.375 3903.01 962.383 3872.3 940.164L3947.78 833.314C3980.45 852.92 4010.19 867.297 4036.98 876.446C4063.78 884.942 4090.25 889.19 4116.39 889.19C4142.53 889.19 4163.11 885.596 4178.14 878.407C4193.83 870.565 4201.67 860.435 4201.67 848.018C4201.67 838.216 4197.42 830.374 4188.93 824.492C4180.43 817.957 4167.03 813.382 4148.73 810.768L4045.81 795.084C3994.18 787.242 3954.64 770.25 3927.19 744.11C3900.4 717.316 3887 682.679 3887 640.201C3887 604.911 3895.82 574.85 3913.47 550.016C3931.77 524.529 3957.58 505.25 3990.91 492.18C4024.24 478.456 4064.1 471.594 4110.5 471.594C4148.41 471.594 4185.99 476.822 4223.24 487.279C4260.49 497.735 4295.12 513.419 4327.14 534.332L4251.66 636.28C4223.56 619.942 4196.77 608.179 4171.28 600.99C4145.79 593.148 4120.31 589.227 4094.82 589.227C4074.56 589.227 4058.22 592.821 4045.81 600.01C4033.39 606.545 4027.18 615.367 4027.18 626.477C4027.18 636.933 4031.76 645.429 4040.9 651.964C4050.05 657.846 4065.74 662.42 4087.96 665.688L4190.89 681.372C4241.86 688.561 4281.07 705.552 4308.52 732.346C4336.62 758.487 4350.67 791.816 4350.67 832.334C4350.67 866.317 4340.54 896.379 4320.28 922.519C4300.02 948.66 4272.25 969.572 4236.96 985.256C4202.32 1000.29 4162.46 1007.8 4117.37 1007.8ZM4674.82 1007.8C4621.88 1007.8 4573.85 996.039 4530.72 972.513C4488.24 948.333 4454.58 915.984 4429.75 875.466C4404.92 834.948 4392.5 789.529 4392.5 739.208C4392.5 688.888 4404.26 643.469 4427.79 602.951C4451.97 562.433 4484.65 530.411 4525.82 506.884C4566.99 482.704 4612.74 470.614 4663.06 470.614C4714.03 470.614 4759.12 483.031 4798.33 507.864C4837.54 532.044 4868.26 565.374 4890.48 607.852C4913.35 650.33 4924.79 699.017 4924.79 753.912V793.123H4555.23C4562.41 809.461 4571.89 823.838 4583.65 836.255C4596.07 848.672 4610.77 858.475 4627.77 865.663C4644.76 872.199 4663.06 875.466 4682.66 875.466C4704.23 875.466 4723.83 872.199 4741.48 865.663C4759.12 858.475 4774.15 848.672 4786.57 836.255L4891.46 929.381C4858.78 956.829 4825.13 976.761 4790.49 989.178C4756.51 1001.59 4717.95 1007.8 4674.82 1007.8ZM4552.28 682.353H4768.92C4763.7 665.361 4755.53 650.984 4744.42 639.221C4733.96 626.804 4721.55 617.328 4707.17 610.793C4692.79 603.604 4677.11 600.01 4660.11 600.01C4642.47 600.01 4626.46 603.277 4612.08 609.813C4597.7 616.348 4585.29 625.824 4574.83 638.24C4565.03 650.004 4557.51 664.708 4552.28 682.353Z" fill="#35495E"/>
</svg>
