<svg width="1490" height="211" viewBox="0 0 1490 211" fill="none" xmlns="http://www.w3.org/2000/svg">
<path d="M547.64 194.197C534.52 194.197 521.96 192.357 509.96 188.677C497.96 184.837 488.44 179.957 481.4 174.037L492.2 149.797C498.92 155.077 507.24 159.477 517.16 162.997C527.08 166.517 537.24 168.277 547.64 168.277C556.44 168.277 563.56 167.317 569 165.397C574.44 163.477 578.44 160.917 581 157.717C583.56 154.357 584.84 150.597 584.84 146.437C584.84 141.317 583 137.237 579.32 134.197C575.64 130.997 570.84 128.517 564.92 126.757C559.16 124.837 552.68 123.077 545.48 121.477C538.44 119.877 531.32 118.037 524.12 115.957C517.08 113.717 510.6 110.917 504.68 107.557C498.92 104.037 494.2 99.3966 490.52 93.6366C486.84 87.8766 485 80.5166 485 71.5566C485 62.4366 487.4 54.1166 492.2 46.5966C497.16 38.9166 504.6 32.8366 514.52 28.3566C524.6 23.7166 537.32 21.3966 552.68 21.3966C562.76 21.3966 572.76 22.6766 582.68 25.2366C592.6 27.7966 601.24 31.4766 608.6 36.2766L598.76 60.5166C591.24 56.0366 583.48 52.7566 575.48 50.6766C567.48 48.4366 559.8 47.3166 552.44 47.3166C543.8 47.3166 536.76 48.3566 531.32 50.4366C526.04 52.5166 522.12 55.2366 519.56 58.5966C517.16 61.9566 515.96 65.7966 515.96 70.1166C515.96 75.2366 517.72 79.3966 521.24 82.5966C524.92 85.6366 529.64 88.0366 535.4 89.7966C541.32 91.5566 547.88 93.3166 555.08 95.0766C562.28 96.6766 569.4 98.5166 576.44 100.597C583.64 102.677 590.12 105.397 595.88 108.757C601.8 112.117 606.52 116.677 610.04 122.437C613.72 128.197 615.56 135.477 615.56 144.277C615.56 153.237 613.08 161.557 608.12 169.237C603.32 176.757 595.88 182.837 585.8 187.477C575.72 191.957 563 194.197 547.64 194.197ZM919.514 194.197C906.394 194.197 894.314 192.037 883.274 187.717C872.234 183.397 862.634 177.397 854.474 169.717C846.314 161.877 839.994 152.757 835.514 142.357C831.034 131.797 828.794 120.277 828.794 107.797C828.794 95.3166 831.034 83.8766 835.514 73.4766C839.994 62.9166 846.314 53.7966 854.474 46.1166C862.634 38.2766 872.234 32.1966 883.274 27.8766C894.314 23.5566 906.314 21.3966 919.274 21.3966C932.394 21.3966 944.394 23.5566 955.274 27.8766C966.314 32.1966 975.914 38.2766 984.074 46.1166C992.234 53.7966 998.554 62.9166 1003.03 73.4766C1007.51 83.8766 1009.75 95.3166 1009.75 107.797C1009.75 120.277 1007.51 131.797 1003.03 142.357C998.554 152.917 992.234 162.037 984.074 169.717C975.914 177.397 966.314 183.397 955.274 187.717C944.394 192.037 932.474 194.197 919.514 194.197ZM919.274 166.837C927.754 166.837 935.594 165.397 942.794 162.517C949.994 159.637 956.234 155.557 961.514 150.277C966.794 144.837 970.874 138.597 973.754 131.557C976.794 124.357 978.314 116.437 978.314 107.797C978.314 99.1566 976.794 91.3166 973.754 84.2766C970.874 77.0766 966.794 70.8366 961.514 65.5566C956.234 60.1166 949.994 55.9566 942.794 53.0766C935.594 50.1966 927.754 48.7566 919.274 48.7566C910.794 48.7566 902.954 50.1966 895.754 53.0766C888.714 55.9566 882.474 60.1166 877.034 65.5566C871.754 70.8366 867.594 77.0766 864.554 84.2766C861.674 91.3166 860.234 99.1566 860.234 107.797C860.234 116.277 861.674 124.117 864.554 131.317C867.594 138.517 871.754 144.837 877.034 150.277C882.314 155.557 888.554 159.637 895.754 162.517C902.954 165.397 910.794 166.837 919.274 166.837ZM1082.43 191.797L1026.75 23.7966H1059.15L1108.83 175.717H1092.75L1144.35 23.7966H1173.15L1223.31 175.717H1207.71L1258.59 23.7966H1288.35L1232.67 191.797H1199.55L1153.71 54.7566H1162.35L1115.79 191.797H1082.43ZM1317.28 191.797V23.7966H1342.96L1448.32 153.157H1435.6V23.7966H1466.56V191.797H1440.88L1335.52 62.4366H1348.24V191.797H1317.28Z" fill="black"/>
<path d="M646.498 191.797V23.7966H672.178L777.538 153.157H764.818V23.7966H795.778V191.797H770.098L664.738 62.4366H677.458V191.797H646.498Z" fill="#0153FF"/>
<path fill-rule="evenodd" clip-rule="evenodd" d="M94.5724 195.626L90.5261 197.513C87.1577 198.462 86.3756 194.823 87.9294 191.079C95.7404 172.099 108.349 170.68 128.622 164.934C138.539 161.222 145.891 156.748 151.502 151.773C180.775 125.838 162.473 86.6991 212.426 75.9473C186.917 78.1581 159.761 75.916 142.335 81.0051H142.314C114.981 89.8068 105.929 112.134 100.871 127.996C94.5933 140.959 85.1659 145.84 73.1521 152.378C70.9934 170.962 66.9471 190.025 61.0654 210.914H101.476C100.83 205.627 98.8064 199.036 94.5724 195.626Z" fill="black"/>
<path fill-rule="evenodd" clip-rule="evenodd" d="M253.763 196.386C251.145 197.064 249.028 195.448 248.997 192.267C248.924 185.363 249.184 179.648 251.479 173.6C252.615 167.228 261.709 153.191 269.77 142.262C278.489 130.457 284.569 116.211 286.821 101.903C290.972 75.4253 281.565 50.4489 251.938 49.7397C271.157 66.7905 258.737 91.8712 248.475 110.83C239.913 126.661 229.62 142.596 222.623 159.135L219.922 165.497C227.191 181.526 230.121 193.654 232.175 210.913H266.381C264.598 204.333 263.993 200.704 258.143 195.166L253.763 196.386Z" fill="#0153FF"/>
<path d="M237.797 70.9512C243.136 68.7925 252.032 63.7972 253.617 57.321C261.449 68.3336 257.851 82.0263 252.313 94.5615C242.917 115.846 228.734 134.774 218.473 159.01C198.929 158.061 187.468 151.908 173.004 152.231C166.997 151.72 161.261 151.627 157.226 151.647C185.362 122.666 163.733 87.5743 225.293 74.3196C229.975 73.4853 234.23 72.3903 237.797 70.9512Z" fill="black"/>
<path d="M294.3 159.564C293.215 168.386 296.01 177.751 298.419 187.095C300.401 194.781 302.194 197.732 310.621 195.052C315.668 199.693 317.076 204.521 318.171 210.914H286.958C283.621 193.613 277.27 181.516 265.559 167.114C266.226 163.579 266.674 160.481 266.873 157.186C267.623 156.425 268.426 155.674 269.261 154.933C282.077 147.102 294.936 135.86 304.332 124.19C299.65 135.265 295.885 146.747 294.3 159.564Z" fill="black"/>
<path d="M152.481 175.853C152.419 181.6 154.504 186.856 156.1 192.278C158.081 199.026 160.824 197.169 167.978 195.167C173.818 200.694 174.423 204.292 176.217 210.914H144.837C141.198 199.14 132.688 184.228 125.847 175.822C126.744 174.466 127.474 171.682 127.974 169.137L129.976 168.553C138.278 165.456 146.224 161.316 153.013 155.58C158.916 155.361 165.162 155.518 171.055 155.956C166.278 164.465 160.616 170.18 152.481 175.853Z" fill="black"/>
<path d="M97.2742 126.546C95.9498 129.247 94.4794 131.698 92.8629 133.951C84.3636 140.448 73.2781 149.166 62.8495 155.809C46.2681 166.394 22.1781 169.231 2.6349 155.434C6.11805 155.892 8.63133 155.788 11.4679 155.465C3.28147 148.613 -3.76824 133.794 2.25947 120.56C2.25947 120.56 3.35447 124.659 4.40776 127.391C6.20148 115.763 13.7935 108.755 24.2533 104.427C28.2371 110.81 27.0169 119.83 24.2638 125.034C22.8246 127.954 21.8026 131.583 23.4921 134.618C31.3239 146.851 50.6168 137.882 70.4623 122.521C73.3511 120.289 76.3649 118.245 79.2536 116.149C91.5176 107.243 104.199 98.0452 117.746 90.9016C114.982 93.4983 112.437 96.387 110.112 99.5782C104.126 107.796 100.351 116.931 97.2742 126.546Z" fill="black"/>
<path d="M282.56 2.24846C290.058 -0.442111 298.651 -0.00410919 303.626 1.21603C304.335 5.64818 303.667 13.2402 300.685 18.6318C321.208 40.5213 323.628 70.4096 314.617 99.1403C306.128 122.406 282.122 142.607 266.948 151.815C303.427 111.696 302.864 38.7068 242.087 46.403C238.489 46.3509 234.495 46.9453 230.813 47.8005C227.893 44.6719 227.195 39.2282 227.215 37.0486C224.045 33.4716 223.795 27.4648 224.348 23.3663C221.219 18.9238 220.781 12.5206 226.861 11.1336C232.367 9.87175 247.176 7.27503 250.575 3.18703C251.816 1.69575 251.232 2.13375 252.984 1.36203C259.45 -1.48497 274.655 0.788462 282.56 2.24846Z" fill="black"/>
<path d="M268.305 7.15353C264.728 7.75569 261.228 6.85718 257.754 6.00708C255.27 7.95818 251.911 9.34667 248.282 9.92285C251.978 10.0758 255.556 10.0994 259.131 9.42578C261.905 8.90391 265.516 7.62935 268.305 7.15353Z" fill="white"/>
</svg>
