<?xml version="1.0" encoding="UTF-8" standalone="no"?>
<svg
   xmlns:dc="http://purl.org/dc/elements/1.1/"
   xmlns:cc="http://creativecommons.org/ns#"
   xmlns:rdf="http://www.w3.org/1999/02/22-rdf-syntax-ns#"
   xmlns:svg="http://www.w3.org/2000/svg"
   xmlns="http://www.w3.org/2000/svg"
   xmlns:sodipodi="http://sodipodi.sourceforge.net/DTD/sodipodi-0.dtd"
   xmlns:inkscape="http://www.inkscape.org/namespaces/inkscape"
   width="210mm"
   height="101mm"
   viewBox="0 0 210 101"
   version="1.1"
   id="svg1056"
   inkscape:version="1.0.2-2 (e86c870879, 2021-01-15)"
   sodipodi:docname="COL logo blue svg.svg">
  <defs
     id="defs1050" />
  <sodipodi:namedview
     id="base"
     pagecolor="#ffffff"
     bordercolor="#666666"
     borderopacity="1.0"
     inkscape:pageopacity="0.0"
     inkscape:pageshadow="2"
     inkscape:zoom="0.35"
     inkscape:cx="-356.9074"
     inkscape:cy="-114.53521"
     inkscape:document-units="mm"
     inkscape:current-layer="layer1"
     inkscape:document-rotation="0"
     showgrid="false"
     inkscape:window-width="1566"
     inkscape:window-height="1030"
     inkscape:window-x="64"
     inkscape:window-y="0"
     inkscape:window-maximized="0"
     width="296mm" />
  <metadata
     id="metadata1053">
    <rdf:RDF>
      <cc:Work
         rdf:about="">
        <dc:format>image/svg+xml</dc:format>
        <dc:type
           rdf:resource="http://purl.org/dc/dcmitype/StillImage" />
        <dc:title></dc:title>
      </cc:Work>
    </rdf:RDF>
  </metadata>
  <g
     inkscape:label="Layer 1"
     inkscape:groupmode="layer"
     id="layer1">
    <path
       sodipodi:arc-type="arc"
       style="opacity:0.971;fill:none;fill-opacity:1;stroke:#1f3668;stroke-width:3.39181;stroke-linecap:round;stroke-linejoin:round;stroke-miterlimit:4;stroke-dasharray:none;stroke-dashoffset:0;stroke-opacity:1;paint-order:normal"
       id="path1126"
       sodipodi:type="arc"
       sodipodi:cx="18.057852"
       sodipodi:cy="59.807106"
       sodipodi:rx="15.537807"
       sodipodi:ry="15.252393"
       sodipodi:start="0.68021425"
       sodipodi:end="5.5988218"
       sodipodi:open="true"
       inkscape:export-xdpi="334.91"
       inkscape:export-ydpi="334.91"
       inkscape:export-filename="C:\Users\imejl\OneDrive - Callan Method Group Ltd\Images misc\Logos\COL round XS.png"
       d="M 30.137533,69.400245 A 15.537807,15.252393 0 0 1 12.889822,74.191096 15.537807,15.252393 0 0 1 2.5200778,59.838749 15.537807,15.252393 0 0 1 12.829066,45.44429 15.537807,15.252393 0 0 1 30.09688,50.164849" />
    <g
       id="g1132"
       transform="matrix(2.9599402,0,0,2.9599402,-33.664546,-132.89556)"
       inkscape:export-xdpi="334.91"
       inkscape:export-ydpi="334.91"
       style="opacity:0.998982;stroke:#1f3668;stroke-width:0.999841;stroke-miterlimit:4;stroke-dasharray:none;stroke-opacity:1"
       inkscape:export-filename="C:\Users\imejl\OneDrive - Callan Method Group Ltd\Images misc\Logos\COL round XS.png">
      <path
         sodipodi:nodetypes="ccc"
         inkscape:connector-curvature="0"
         id="path1128"
         d="m 24.808662,70.256519 6.112279,-18.696383 6.328007,18.687846"
         style="fill:none;stroke:#1f3668;stroke-width:0.999841;stroke-linecap:round;stroke-linejoin:miter;stroke-miterlimit:4;stroke-dasharray:none;stroke-opacity:1" />
      <path
         inkscape:connector-curvature="0"
         id="path1130"
         d="M 28.260302,59.649917 H 33.58158"
         style="fill:none;stroke:#1f3668;stroke-width:0.999841;stroke-linecap:butt;stroke-linejoin:miter;stroke-miterlimit:4;stroke-dasharray:none;stroke-opacity:1" />
    </g>
    <path
       style="opacity:0.998982;fill:none;stroke:#1f3668;stroke-width:3.55193;stroke-linecap:round;stroke-linejoin:miter;stroke-miterlimit:4;stroke-dasharray:none;stroke-opacity:1"
       d="M 91.417494,2.4302261 V 75.046265"
       id="path1134"
       inkscape:connector-curvature="0"
       sodipodi:nodetypes="cc"
       inkscape:export-xdpi="334.91"
       inkscape:export-ydpi="334.91"
       inkscape:export-filename="C:\Users\imejl\OneDrive - Callan Method Group Ltd\Images misc\Logos\COL round XS.png" />
    <path
       sodipodi:nodetypes="cc"
       inkscape:connector-curvature="0"
       id="path1136"
       d="M 119.68563,2.4302261 V 75.046265"
       style="opacity:0.998982;fill:none;stroke:#1f3668;stroke-width:3.55193;stroke-linecap:round;stroke-linejoin:miter;stroke-miterlimit:4;stroke-dasharray:none;stroke-opacity:1"
       inkscape:export-xdpi="334.91"
       inkscape:export-ydpi="334.91"
       inkscape:export-filename="C:\Users\imejl\OneDrive - Callan Method Group Ltd\Images misc\Logos\COL round XS.png" />
    <g
       id="g1142"
       transform="matrix(2.9599402,0,0,2.9599402,59.648877,-132.89556)"
       inkscape:export-xdpi="334.91"
       inkscape:export-ydpi="334.91"
       style="opacity:0.998982;stroke:#1f3668;stroke-opacity:1"
       inkscape:export-filename="C:\Users\imejl\OneDrive - Callan Method Group Ltd\Images misc\Logos\COL round XS.png">
      <path
         style="fill:none;stroke:#1f3668;stroke-width:1.2;stroke-linecap:round;stroke-linejoin:miter;stroke-miterlimit:4;stroke-dasharray:none;stroke-opacity:1"
         d="m 24.808662,70.256519 6.112279,-18.696383 6.328007,18.687846"
         id="path1138"
         inkscape:connector-curvature="0"
         sodipodi:nodetypes="ccc" />
      <path
         style="fill:none;stroke:#1f3668;stroke-width:1px;stroke-linecap:butt;stroke-linejoin:miter;stroke-opacity:1"
         d="M 28.260302,59.649917 H 33.58158"
         id="path1140"
         inkscape:connector-curvature="0" />
    </g>
    <g
       id="g1150"
       style="opacity:0.998982;stroke:#1f3668;stroke-width:1.2;stroke-miterlimit:4;stroke-dasharray:none;stroke-opacity:1"
       transform="matrix(2.9599402,0,0,2.9599402,-33.664546,-132.89556)"
       inkscape:export-xdpi="334.91"
       inkscape:export-ydpi="334.91"
       inkscape:export-filename="C:\Users\imejl\OneDrive - Callan Method Group Ltd\Images misc\Logos\COL round XS.png">
      <path
         sodipodi:nodetypes="cc"
         inkscape:connector-curvature="0"
         id="path1144"
         d="M 72.682188,70.3509 V 59.70385"
         style="fill:none;stroke:#1f3668;stroke-width:1.2;stroke-linecap:round;stroke-linejoin:miter;stroke-miterlimit:4;stroke-dasharray:none;stroke-opacity:1" />
      <path
         style="fill:none;stroke:#1f3668;stroke-width:1.2;stroke-linecap:round;stroke-linejoin:miter;stroke-miterlimit:4;stroke-dasharray:none;stroke-opacity:1"
         d="M 81.538434,70.353923 72.840148,59.940471"
         id="path1146"
         inkscape:connector-curvature="0"
         sodipodi:nodetypes="cc" />
      <path
         style="fill:none;stroke:#1f3668;stroke-width:1.2;stroke-linecap:round;stroke-linejoin:miter;stroke-miterlimit:4;stroke-dasharray:none;stroke-opacity:1"
         d="M 81.526547,70.3509 V 59.70385"
         id="path1148"
         inkscape:connector-curvature="0"
         sodipodi:nodetypes="cc" />
    </g>
    <path
       d="m 153.7694,99.547542 q 0,0.22228 -0.0759,0.3705 -0.0639,0.148058 -0.17771,0.246868 -0.1018,0.0859 -0.24099,0.12375 -0.12655,0.0363 -0.24098,0.0363 h -0.31747 q -0.25364,0 -0.46931,-0.0611 -0.20302,-0.0611 -0.40604,-0.2099 -0.19037,-0.160548 -0.39339,-0.419848 -0.19037,-0.259247 -0.43135,-0.666567 l -5.78455,-9.97572 q -0.43135,-0.72845 -0.8753,-1.49401 -0.43135,-0.77779 -0.82452,-1.50623 h -0.0165 q 0.0165,0.90139 0.0165,1.85196 0,0.93835 0,1.83959 v 10.346055 q 0,0.0743 -0.0385,0.13541 -0.0385,0.0611 -0.12654,0.099 -0.0886,0.0363 -0.24099,0.0611 -0.13975,0.0248 -0.36808,0.0248 -0.21567,0 -0.36808,-0.0248 -0.15241,-0.0248 -0.24099,-0.0611 -0.0886,-0.0363 -0.12654,-0.099 -0.0385,-0.0611 -0.0385,-0.13541 V 85.077965 q 0,-0.44445 0.24098,-0.605 0.24099,-0.17282 0.46932,-0.17282 h 0.63426 q 0.30481,0 0.50728,0.0495 0.20302,0.0495 0.36807,0.17282 0.16505,0.11064 0.31692,0.33336 0.16504,0.2099 0.35542,0.54326 l 4.42729,7.64236 q 0.41869,0.71607 0.78638,1.38264 0.38074,0.65449 0.73582,1.29646 0.35543,0.6296 0.69759,1.24696 0.35543,0.61723 0.69775,1.24697 h 0.0165 q -0.0165,-1.0372 -0.0165,-2.16057 0,-1.12352 0,-2.16057 v -9.29679 q 0,-0.0743 0.0385,-0.1354 0.0385,-0.0611 0.12655,-0.099 0.0886,-0.0495 0.22833,-0.0611 0.15241,-0.0247 0.38073,-0.0247 0.20302,0 0.35542,0.0247 0.15239,0.0143 0.24098,0.0611 0.0886,0.0363 0.12656,0.099 0.0495,0.0611 0.0495,0.1354 z"
       style="font-weight:300;font-size:17.6065px;line-height:1.25;font-family:Calibri;-inkscape-font-specification:'Calibri Light';letter-spacing:11.3738px;opacity:0.998982;fill:#1f3769;fill-opacity:1;stroke-width:2.52849"
       id="path1152"
       inkscape:export-filename="C:\Users\imejl\OneDrive - Callan Method Group Ltd\Images misc\Logos\COL round XS.png"
       inkscape:export-xdpi="334.91"
       inkscape:export-ydpi="334.91" />
    <path
       d="m 183.57217,99.609272 q 0,0.16055 -0.0219,0.28401 -0.0276,0.123738 -0.0885,0.209898 -0.0495,0.0859 -0.12657,0.1354 -0.0759,0.0363 -0.1651,0.0363 h -7.68733 q -0.22833,0 -0.46931,-0.16055 -0.24099,-0.172818 -0.24099,-0.617215 v -14.42047 q 0,-0.44444 0.24099,-0.60485 0.24098,-0.17292 0.46931,-0.17292 h 7.57322 q 0.0885,0 0.1651,0.0495 0.0759,0.0363 0.12657,0.12375 0.0495,0.0859 0.0759,0.22227 0.0219,0.12374 0.0219,0.29623 0,0.16055 -0.0219,0.284 -0.0276,0.12375 -0.0759,0.2099 -0.0495,0.0743 -0.12657,0.12375 -0.0759,0.0363 -0.1651,0.0363 h -6.73604 v 5.61747 h 5.81007 q 0.10182,0 0.17772,0.0495 0.0759,0.0363 0.12657,0.12375 0.0495,0.0743 0.0759,0.20989 0.0219,0.12375 0.0219,0.2964 0,0.16042 -0.0219,0.28383 -0.0276,0.11064 -0.0759,0.1852 -0.0495,0.0743 -0.12657,0.11064 -0.0759,0.0363 -0.17772,0.0363 h -5.81007 v 6.37065 h 6.85015 q 0.0885,0 0.1651,0.0495 0.0759,0.0363 0.12657,0.12375 0.0637,0.0743 0.0885,0.20989 0.0219,0.12375 0.0219,0.296397 z"
       style="font-weight:300;font-size:17.6065px;line-height:1.25;font-family:Calibri;-inkscape-font-specification:'Calibri Light';letter-spacing:11.3738px;opacity:0.998982;fill:#1f3769;fill-opacity:1;stroke-width:2.52849"
       id="path1154"
       inkscape:export-filename="C:\Users\imejl\OneDrive - Callan Method Group Ltd\Images misc\Logos\COL round XS.png"
       inkscape:export-xdpi="334.91"
       inkscape:export-ydpi="334.91" />
    <path
       d="m 37.896246,92.102875 q 0,1.91354 -0.456661,3.46926 -0.444003,1.54321 -1.344612,2.64213 -0.900664,1.08639 -2.270641,1.679017 -1.370087,0.592618 -3.196725,0.592618 -1.826801,0 -3.146106,-0.555638 -1.306485,-0.567877 -2.156476,-1.604927 -0.837226,-1.04943 -1.243212,-2.55565 -0.393387,-1.50624 -0.393387,-3.39518 0,-1.8767 0.444004,-3.40768 0.444005,-1.53083 1.344614,-2.605 0.913319,-1.0864 2.270641,-1.67902 1.370087,-0.59263 3.209432,-0.59263 1.788784,0 3.095269,0.55551 1.30665,0.55564 2.156476,1.5927 0.862646,1.03705 1.268687,2.51868 0.418697,1.48147 0.418697,3.34581 z m -1.649036,0.13541 q 0,-1.41992 -0.278945,-2.65451 -0.266294,-1.24696 -0.90061,-2.16056 -0.621607,-0.92599 -1.661854,-1.44451 -1.040249,-0.53088 -2.575173,-0.53088 -1.522215,0 -2.575171,0.55565 -1.040247,0.54315 -1.699818,1.46911 -0.646914,0.92598 -0.938791,2.16057 -0.278949,1.23473 -0.278949,2.60515 0,1.45674 0.253638,2.71607 0.266294,1.24697 0.888011,2.17295 0.621606,0.92598 1.661853,1.45687 1.040249,0.51857 2.600481,0.51857 1.54758,0 2.600482,-0.55566 1.052956,-0.56787 1.699871,-1.50623 0.647026,-0.95058 0.926084,-2.18517 0.278947,-1.24697 0.278947,-2.61737 z"
       style="font-weight:300;font-size:17.6065px;line-height:1.25;font-family:Calibri;-inkscape-font-specification:'Calibri Light';letter-spacing:11.3738px;opacity:0.998982;fill:#1f3769;fill-opacity:1;stroke-width:2.52849"
       id="path1156"
       inkscape:export-filename="C:\Users\imejl\OneDrive - Callan Method Group Ltd\Images misc\Logos\COL round XS.png"
       inkscape:export-xdpi="334.91"
       inkscape:export-ydpi="334.91" />
    <path
       d="m 70.514446,99.547542 q 0,0.22228 -0.07592,0.3705 -0.06381,0.148058 -0.177713,0.246868 -0.101784,0.0859 -0.240983,0.12375 -0.126549,0.0363 -0.240984,0.0363 h -0.316911 q -0.253638,0 -0.469313,-0.0611 -0.20302,-0.0611 -0.406043,-0.2099 -0.190364,-0.160548 -0.393385,-0.419848 -0.190367,-0.259247 -0.431351,-0.666567 l -5.78455,-9.97572 q -0.43135,-0.72845 -0.875355,-1.49401 -0.431351,-0.77779 -0.824517,-1.50622 h -0.01645 q 0.01645,0.90138 0.01645,1.85195 0,0.93836 0,1.83959 v 10.346055 q 0,0.0743 -0.03851,0.13541 -0.03851,0.0611 -0.12655,0.099 -0.08858,0.0363 -0.240984,0.0611 -0.139754,0.0248 -0.368077,0.0248 -0.215676,0 -0.36808,-0.0248 -0.152393,-0.0248 -0.240983,-0.0611 -0.08858,-0.0363 -0.126549,-0.099 -0.03851,-0.0611 -0.03851,-0.13541 V 85.077965 q 0,-0.44445 0.240983,-0.605 0.240986,-0.17282 0.469313,-0.17282 h 0.634262 q 0.304256,0 0.507276,0.0495 0.203022,0.0495 0.368079,0.17282 0.165051,0.11064 0.31691,0.33336 0.165067,0.2099 0.355424,0.54326 l 4.427283,7.64236 q 0.418695,0.71607 0.786499,1.38264 0.380732,0.65449 0.735716,1.29646 0.355424,0.6296 0.697753,1.24696 0.354873,0.61723 0.697699,1.24697 h 0.01645 q -0.01645,-1.0372 -0.01645,-2.16057 0,-1.12352 0,-2.16057 v -9.29679 q 0,-0.0743 0.03851,-0.1354 0.03852,-0.0611 0.12655,-0.099 0.08858,-0.0495 0.228328,-0.0611 0.152411,-0.0247 0.380734,-0.0247 0.203021,0 0.355422,0.0247 0.151863,0.0143 0.240985,0.0611 0.08858,0.0363 0.12655,0.099 0.04952,0.0611 0.04952,0.1354 z"
       style="font-weight:300;font-size:17.6065px;line-height:1.25;font-family:Calibri;-inkscape-font-specification:'Calibri Light';letter-spacing:11.3738px;opacity:0.998982;fill:#1f3769;fill-opacity:1;stroke-width:2.52849"
       id="path1158"
       inkscape:export-filename="C:\Users\imejl\OneDrive - Callan Method Group Ltd\Images misc\Logos\COL round XS.png"
       inkscape:export-xdpi="334.91"
       inkscape:export-ydpi="334.91" />
    <path
       d="m 99.674497,99.584662 q 0,0.17281 -0.02748,0.29623 -0.02748,0.123738 -0.07588,0.222278 -0.04951,0.0859 -0.126547,0.1354 -0.07588,0.0363 -0.177711,0.0363 H 92.15031 q -0.228329,0 -0.469313,-0.16056 -0.240983,-0.172808 -0.240983,-0.617205 v -14.95122 q 0,-0.0743 0.03852,-0.13541 0.03851,-0.0611 0.126549,-0.099 0.08858,-0.0363 0.240983,-0.0611 0.15241,-0.0247 0.36808,-0.0247 0.228328,0 0.368077,0.0247 0.152411,0.0248 0.240984,0.0611 0.08858,0.0363 0.12655,0.099 0.03852,0.0611 0.03852,0.13541 v 14.35859 h 6.279329 q 0.101783,0 0.177711,0.0495 0.07588,0.0363 0.126557,0.12374 0.04951,0.0743 0.07588,0.2099 0.02203,0.12374 0.02203,0.296217 z"
       style="font-weight:300;font-size:17.6065px;line-height:1.25;font-family:Calibri;-inkscape-font-specification:'Calibri Light';letter-spacing:11.3738px;opacity:0.998982;fill:#1f3769;fill-opacity:1;stroke-width:2.52849"
       id="path1160"
       inkscape:export-filename="C:\Users\imejl\OneDrive - Callan Method Group Ltd\Images misc\Logos\COL round XS.png"
       inkscape:export-xdpi="334.91"
       inkscape:export-ydpi="334.91" />
    <path
       d="m 120.97351,100.0291 q 0,0.0743 -0.0385,0.1354 -0.0385,0.0611 -0.12655,0.099 -0.0886,0.0363 -0.24099,0.0611 -0.13975,0.0247 -0.36808,0.0247 -0.21567,0 -0.36807,-0.0247 -0.15239,-0.0248 -0.24099,-0.0611 -0.0886,-0.0363 -0.12655,-0.099 -0.0385,-0.0611 -0.0385,-0.1354 V 84.546985 q 0,-0.0743 0.0385,-0.1354 0.0495,-0.0611 0.13976,-0.099 0.10178,-0.0363 0.24098,-0.0611 0.15186,-0.0248 0.35487,-0.0248 0.22833,0 0.36808,0.0248 0.15242,0.0247 0.24099,0.0611 0.0886,0.0363 0.12655,0.099 0.0385,0.0611 0.0385,0.1354 z"
       style="font-weight:300;font-size:17.6065px;line-height:1.25;font-family:Calibri;-inkscape-font-specification:'Calibri Light';letter-spacing:11.3738px;opacity:0.998982;fill:#1f3769;fill-opacity:1;stroke-width:2.52849"
       id="path1162"
       inkscape:export-filename="C:\Users\imejl\OneDrive - Callan Method Group Ltd\Images misc\Logos\COL round XS.png"
       inkscape:export-xdpi="334.91"
       inkscape:export-ydpi="334.91" />
  </g>
</svg>
