<svg width="469" height="79" viewBox="0 0 469 79" fill="none" xmlns="http://www.w3.org/2000/svg">
<path d="M0.08 61L12 5H28.64L36.56 31.32L55.76 5H73.12L61.2 61H48.8L56.88 22.92L31.76 57L20.88 22.68L12.8 61H0.08ZM84.2531 61.4C79.8798 61.4 76.3865 60.3333 73.7731 58.2C71.2131 56.0667 69.9331 53.2133 69.9331 49.64C69.9331 46.7067 70.6531 44.2 72.0931 42.12C73.5331 40.04 75.5865 38.44 78.2531 37.32C80.9731 36.2 84.1998 35.64 87.9331 35.64C89.7465 35.64 91.5598 35.8 93.3731 36.12C95.2398 36.3867 97.0265 36.7867 98.7331 37.32L98.9731 36.12C99.5065 33.6133 99.0798 31.7467 97.6931 30.52C96.3598 29.24 94.0931 28.6 90.8931 28.6C89.4531 28.6 87.7998 28.8133 85.9331 29.24C84.1198 29.6133 81.8798 30.2533 79.2131 31.16L76.1731 21.56C79.4265 20.3333 82.5198 19.4267 85.4531 18.84C88.3865 18.2533 91.1598 17.96 93.7731 17.96C98.2531 17.96 101.933 18.68 104.813 20.12C107.746 21.56 109.8 23.64 110.973 26.36C112.146 29.0267 112.333 32.2533 111.533 36.04L106.253 61H93.6931L94.1731 58.68C92.5198 59.64 90.8931 60.3333 89.2931 60.76C87.6931 61.1867 86.0131 61.4 84.2531 61.4ZM88.8131 52.44C90.0931 52.44 91.3198 52.3067 92.4931 52.04C93.6665 51.72 94.7865 51.2933 95.8531 50.76L97.0531 45.24C94.3865 44.3867 91.7465 43.96 89.1331 43.96C86.8398 43.96 85.0531 44.36 83.7731 45.16C82.5465 45.96 81.9331 47.1067 81.9331 48.6C81.9331 49.7733 82.5465 50.7067 83.7731 51.4C84.9998 52.0933 86.6798 52.44 88.8131 52.44ZM113.737 61L122.697 18.68H135.417L126.457 61H113.737ZM130.617 14.76C128.857 14.76 127.364 14.1733 126.137 13C124.964 11.7733 124.377 10.28 124.377 8.52C124.377 7.08 124.724 5.74666 125.417 4.52C126.164 3.29333 127.124 2.33333 128.297 1.64C129.524 0.89333 130.83 0.519997 132.217 0.519997C133.977 0.519997 135.444 1.13333 136.617 2.36C137.844 3.53333 138.457 5 138.457 6.76C138.457 8.2 138.084 9.53333 137.337 10.76C136.644 11.9333 135.684 12.8933 134.457 13.64C133.284 14.3867 132.004 14.76 130.617 14.76ZM134.284 61L143.244 18.68H155.964L155.404 21.32C158.817 19.1333 162.497 18.04 166.444 18.04C169.804 18.04 172.63 18.8133 174.924 20.36C177.217 21.9067 178.817 24.0133 179.724 26.68C180.684 29.3467 180.79 32.3867 180.044 35.8L174.684 61H161.964L167.084 37C167.564 34.6 167.217 32.68 166.044 31.24C164.87 29.7467 163.11 29 160.764 29C159.27 29 157.884 29.2667 156.604 29.8C155.324 30.28 154.15 31.0533 153.084 32.12L147.004 61H134.284Z" fill="#0153FF"/>
<path d="M182.814 61L194.734 5H220.814C224.334 5 227.401 5.72 230.014 7.16C232.681 8.54666 234.761 10.4933 236.254 13C237.748 15.4533 238.494 18.3067 238.494 21.56C238.494 25.1333 237.534 28.3867 235.614 31.32C233.748 34.2533 231.214 36.6 228.014 38.36C224.814 40.0667 221.241 40.92 217.294 40.92H200.494L196.254 61H182.814ZM202.974 29.56H217.054C218.548 29.56 219.854 29.2667 220.974 28.68C222.148 28.04 223.054 27.2133 223.694 26.2C224.388 25.1333 224.734 23.96 224.734 22.68C224.734 20.8667 224.148 19.4267 222.974 18.36C221.854 17.2933 220.334 16.76 218.414 16.76H205.694L202.974 29.56ZM236.627 61L245.588 18.68H258.307L257.508 22.44C259.054 20.9467 260.734 19.8267 262.548 19.08C264.414 18.28 266.361 17.88 268.388 17.88C270.894 17.88 272.734 18.3333 273.908 19.24L271.588 30.44C271.054 30.0133 270.121 29.64 268.788 29.32C267.508 29 266.281 28.84 265.108 28.84C261.161 28.84 257.828 30.44 255.108 33.64L249.348 61H236.627ZM294.376 61.8C290.322 61.8 286.696 60.92 283.496 59.16C280.296 57.3467 277.762 54.8933 275.896 51.8C274.029 48.7067 273.096 45.24 273.096 41.4C273.096 38.2 273.709 35.1867 274.936 32.36C276.216 29.48 277.949 26.9733 280.136 24.84C282.376 22.6533 284.936 20.9467 287.816 19.72C290.749 18.4933 293.842 17.88 297.096 17.88C301.149 17.88 304.749 18.7867 307.896 20.6C311.096 22.36 313.629 24.7867 315.496 27.88C317.362 30.92 318.296 34.3867 318.296 38.28C318.296 41.48 317.656 44.4933 316.376 47.32C315.149 50.1467 313.416 52.6533 311.176 54.84C308.989 57.0267 306.456 58.7333 303.576 59.96C300.696 61.1867 297.629 61.8 294.376 61.8ZM294.936 50.6C296.429 50.6 297.816 50.3067 299.096 49.72C300.429 49.08 301.602 48.2267 302.616 47.16C303.629 46.0933 304.402 44.84 304.936 43.4C305.522 41.96 305.816 40.44 305.816 38.84C305.816 36.92 305.416 35.24 304.616 33.8C303.816 32.3067 302.696 31.16 301.256 30.36C299.869 29.5067 298.269 29.08 296.456 29.08C294.962 29.08 293.549 29.4 292.216 30.04C290.936 30.6267 289.789 31.4533 288.776 32.52C287.762 33.5867 286.962 34.84 286.376 36.28C285.842 37.72 285.576 39.24 285.576 40.84C285.576 42.7067 285.976 44.3867 286.776 45.88C287.576 47.3733 288.669 48.5467 290.056 49.4C291.496 50.2 293.122 50.6 294.936 50.6ZM336.711 14.76C334.951 14.76 333.457 14.1733 332.231 13C331.057 11.7733 330.471 10.28 330.471 8.52C330.471 7.08 330.817 5.74666 331.511 4.52C332.257 3.29333 333.217 2.33333 334.391 1.64C335.617 0.89333 336.924 0.519997 338.311 0.519997C340.071 0.519997 341.537 1.13333 342.711 2.36C343.937 3.53333 344.551 5 344.551 6.76C344.551 8.2 344.177 9.53333 343.431 10.76C342.737 11.9333 341.777 12.8933 340.551 13.64C339.377 14.3867 338.097 14.76 336.711 14.76ZM315.671 78.44C314.497 78.44 313.164 78.3067 311.671 78.04C310.177 77.8267 309.031 77.56 308.231 77.24L310.311 67.56C310.951 67.72 311.591 67.8267 312.231 67.88C312.871 67.9867 313.671 68.04 314.631 68.04C315.857 68.04 316.844 67.7467 317.591 67.16C318.337 66.5733 318.817 65.6933 319.031 64.52L328.791 18.68H341.591L331.511 65.88C330.657 69.9333 328.844 73.0267 326.071 75.16C323.351 77.3467 319.884 78.44 315.671 78.44ZM364.618 61.88C360.404 61.88 356.644 61.0267 353.338 59.32C350.084 57.56 347.524 55.16 345.658 52.12C343.791 49.0267 342.858 45.5333 342.858 41.64C342.858 38.44 343.444 35.4267 344.618 32.6C345.844 29.72 347.524 27.1867 349.658 25C351.791 22.8133 354.244 21.1067 357.018 19.88C359.844 18.6533 362.858 18.04 366.058 18.04C369.898 18.04 373.284 18.92 376.218 20.68C379.151 22.44 381.444 24.8667 383.098 27.96C384.751 31 385.578 34.5467 385.578 38.6C385.578 39.1867 385.551 39.8533 385.498 40.6C385.444 41.3467 385.311 42.5467 385.098 44.2H355.498C355.924 45.5867 356.618 46.8133 357.578 47.88C358.538 48.9467 359.684 49.7733 361.018 50.36C362.404 50.9467 363.951 51.24 365.658 51.24C367.364 51.24 368.911 51 370.298 50.52C371.738 49.9867 372.991 49.24 374.058 48.28L381.178 56.36C378.511 58.3333 375.871 59.7467 373.258 60.6C370.698 61.4533 367.818 61.88 364.618 61.88ZM356.218 35.24H373.658C373.284 33.9067 372.698 32.76 371.898 31.8C371.151 30.7867 370.218 30.0133 369.098 29.48C368.031 28.9467 366.831 28.68 365.498 28.68C364.111 28.68 362.831 28.9733 361.658 29.56C360.484 30.0933 359.418 30.84 358.458 31.8C357.551 32.76 356.804 33.9067 356.218 35.24ZM410.213 61.88C406.319 61.88 402.826 61.0267 399.733 59.32C396.639 57.56 394.186 55.16 392.373 52.12C390.613 49.08 389.733 45.64 389.733 41.8C389.733 38.4933 390.319 35.4 391.493 32.52C392.719 29.5867 394.399 27.0267 396.533 24.84C398.666 22.6533 401.146 20.9467 403.973 19.72C406.799 18.4933 409.839 17.88 413.093 17.88C416.773 17.88 420.159 18.6533 423.253 20.2C426.399 21.7467 428.933 23.9067 430.853 26.68L422.213 34.52C421.039 32.6533 419.679 31.2933 418.133 30.44C416.639 29.5867 414.906 29.16 412.933 29.16C411.493 29.16 410.133 29.48 408.853 30.12C407.573 30.7067 406.426 31.56 405.413 32.68C404.453 33.7467 403.706 35 403.173 36.44C402.639 37.88 402.373 39.4267 402.373 41.08C402.373 43 402.746 44.68 403.493 46.12C404.293 47.56 405.386 48.68 406.773 49.48C408.159 50.28 409.759 50.68 411.573 50.68C413.226 50.68 414.746 50.36 416.133 49.72C417.573 49.0267 419.013 47.9867 420.453 46.6L427.013 55C422.159 59.5867 416.559 61.88 410.213 61.88ZM451.118 61.48C446.051 61.48 442.398 60.28 440.158 57.88C437.971 55.4267 437.358 51.9333 438.318 47.4L442.158 29.48H433.758L435.998 18.68H444.398L446.718 7.8L459.998 5L457.038 18.68H468.638L466.398 29.48H454.798L451.358 45.4C450.985 47.32 451.171 48.7067 451.918 49.56C452.718 50.4133 454.185 50.84 456.318 50.84C457.225 50.84 458.078 50.7867 458.878 50.68C459.731 50.5733 460.638 50.4133 461.598 50.2L459.358 60.6C458.345 60.8133 457.038 61 455.438 61.16C453.891 61.3733 452.451 61.48 451.118 61.48Z" fill="black"/>
</svg>
