<svg viewBox="0 0 2793 697" fill="none" xmlns="http://www.w3.org/2000/svg">
<path d="M169.462 537.999H275.332C302.126 537.999 326.959 533.097 349.832 523.295C373.359 513.492 393.945 499.768 411.589 482.123C429.234 464.478 442.958 444.219 452.761 421.346C462.564 397.82 467.465 372.66 467.465 345.866C467.465 318.418 462.564 292.931 452.761 269.404C442.958 245.224 429.234 224.312 411.589 206.667C393.945 189.022 373.359 175.298 349.832 165.496C326.959 155.039 302.126 149.811 275.332 149.811H169.462V537.999ZM0.855741 687V0.81H279.253C330.227 0.81 377.607 9.63245 421.392 27.2773C465.178 44.9222 503.408 69.429 536.084 100.798C569.413 132.166 595.227 168.763 613.525 210.588C632.477 252.413 641.953 297.505 641.953 345.866C641.953 393.572 632.477 438.011 613.525 479.182C595.227 520.354 569.413 556.624 536.084 587.993C503.408 618.708 465.178 642.888 421.392 660.533C377.607 678.178 330.227 687 279.253 687H0.855741ZM723.431 687V168.436H882.235V220.391C899.226 199.478 919.158 183.794 942.031 173.338C964.904 162.228 990.391 156.673 1018.49 156.673C1046.59 157.327 1066.53 161.575 1078.29 169.417V307.635C1067.83 302.407 1056.07 298.486 1043 295.872C1029.93 293.258 1016.53 291.951 1002.81 291.951C977.974 291.951 954.775 297.832 933.209 309.596C912.296 320.705 895.305 336.716 882.235 357.629V687H723.431ZM1302.65 695.822C1266.05 695.822 1233.38 688.961 1204.62 675.237C1176.52 661.513 1154.3 642.561 1137.96 618.381C1122.28 594.201 1114.44 566.427 1114.44 535.058C1114.44 485.391 1133.06 447.16 1170.31 420.366C1208.22 392.919 1260.82 379.195 1328.14 379.195C1368.65 379.195 1407.86 384.096 1445.77 393.899V368.412C1445.77 342.271 1437.27 322.993 1420.28 310.576C1403.94 297.506 1379.44 290.97 1346.76 290.97C1326.5 290.97 1303.63 294.238 1278.14 300.773C1253.31 307.308 1223.9 317.764 1189.92 332.142L1133.06 215.489C1175.54 196.538 1216.38 182.487 1255.6 173.338C1295.46 163.535 1335.32 158.634 1375.19 158.634C1447.08 158.634 1502.95 175.952 1542.81 210.588C1582.68 244.571 1602.61 292.604 1602.61 354.688V687H1445.77V655.631C1424.86 670.009 1402.64 680.465 1379.11 687C1356.24 692.882 1330.75 695.822 1302.65 695.822ZM1265.4 532.117C1265.4 548.455 1272.59 561.199 1286.96 570.348C1301.34 579.497 1321.27 584.072 1346.76 584.072C1365.71 584.072 1383.36 582.111 1399.7 578.19C1416.69 574.269 1432.04 568.06 1445.77 559.565V492.906C1430.74 488.985 1415.38 486.044 1399.7 484.084C1384.01 482.123 1368 481.143 1351.66 481.143C1324.21 481.143 1302.98 485.718 1287.94 494.867C1272.91 503.362 1265.4 515.779 1265.4 532.117ZM1895.13 696.803C1854.61 696.803 1818.67 687.98 1787.3 670.335C1756.59 652.69 1732.41 628.184 1714.76 596.815C1697.12 564.793 1688.29 528.523 1688.29 488.005V168.436H1847.1V466.439C1847.1 494.54 1855.59 517.413 1872.58 535.058C1890.23 552.049 1913.1 560.545 1941.2 560.545C1961.46 560.545 1979.43 556.951 1995.12 549.762C2010.8 542.573 2023.87 532.444 2034.33 519.374V168.436H2193.13V687H2034.33V651.71C1995.12 681.772 1948.72 696.803 1895.13 696.803ZM2494.4 696.803C2453.88 696.803 2417.94 687.98 2386.57 670.335C2355.85 652.69 2331.67 628.184 2314.03 596.815C2296.38 564.793 2287.56 528.523 2287.56 488.005V168.436H2446.36V466.439C2446.36 494.54 2454.86 517.413 2471.85 535.058C2489.5 552.049 2512.37 560.545 2540.47 560.545C2560.73 560.545 2578.7 556.951 2594.39 549.762C2610.07 542.573 2623.14 532.444 2633.6 519.374V168.436H2792.4V687H2633.6V651.71C2594.39 681.772 2547.99 696.803 2494.4 696.803Z" fill="black"/>
</svg>
