<svg viewBox="0 0 7674 1297" fill="none" xmlns="http://www.w3.org/2000/svg">
<path d="M1344.55 998L1067.14 311.81H1249.47L1444.54 822.531L1643.54 311.81H1819.01L1537.67 998H1344.55ZM2019.97 1007.8C1979.45 1007.8 1943.51 998.98 1912.14 981.335C1881.42 963.69 1857.24 939.184 1839.6 907.815C1821.95 875.793 1813.13 839.523 1813.13 799.005V479.436H1971.94V777.439C1971.94 805.54 1980.43 828.413 1997.42 846.058C2015.07 863.049 2037.94 871.545 2066.04 871.545C2086.3 871.545 2104.27 867.951 2119.96 860.762C2135.64 853.573 2148.71 843.444 2159.17 830.374V479.436H2317.97V998H2159.17V962.71C2119.96 992.772 2073.56 1007.8 2019.97 1007.8ZM2675.11 1007.8C2622.18 1007.8 2574.14 996.039 2531.01 972.513C2488.53 948.333 2454.88 915.984 2430.04 875.466C2405.21 834.948 2392.79 789.529 2392.79 739.208C2392.79 688.888 2404.56 643.469 2428.08 602.951C2452.26 562.433 2484.94 530.411 2526.11 506.884C2567.28 482.704 2613.03 470.614 2663.35 470.614C2714.32 470.614 2759.42 483.031 2798.63 507.864C2837.84 532.044 2868.55 565.374 2890.77 607.852C2913.65 650.33 2925.08 699.017 2925.08 753.912V793.123H2555.52C2562.71 809.461 2572.18 823.838 2583.95 836.255C2596.36 848.672 2611.07 858.475 2628.06 865.663C2645.05 872.199 2663.35 875.466 2682.95 875.466C2704.52 875.466 2724.13 872.199 2741.77 865.663C2759.42 858.475 2774.45 848.672 2786.86 836.255L2891.75 929.381C2859.08 956.829 2825.42 976.761 2790.78 989.178C2756.8 1001.59 2718.24 1007.8 2675.11 1007.8ZM2552.58 682.353H2769.22C2763.99 665.361 2755.82 650.984 2744.71 639.221C2734.26 626.804 2721.84 617.328 2707.46 610.793C2693.08 603.604 2677.4 600.01 2660.41 600.01C2642.76 600.01 2626.75 603.277 2612.38 609.813C2598 616.348 2585.58 625.824 2575.12 638.24C2565.32 650.004 2557.81 664.708 2552.58 682.353ZM3198.62 998V311.81H3549.55C3596.61 311.81 3638.43 321.286 3675.03 340.238C3711.62 358.536 3740.05 384.35 3760.31 417.679C3781.22 450.355 3791.68 487.932 3791.68 530.411C3791.68 573.542 3779.92 612.1 3756.39 646.083C3732.86 680.065 3701.82 705.879 3663.26 723.524L3813.25 998H3625.03L3495.64 748.031H3367.22V998H3198.62ZM3367.22 610.793H3533.87C3560.01 610.793 3580.92 603.604 3596.61 589.227C3612.94 574.85 3621.11 556.224 3621.11 533.351C3621.11 510.478 3612.94 491.853 3596.61 477.476C3580.92 463.099 3560.01 455.91 3533.87 455.91H3367.22V610.793ZM4099.57 1007.8C4046.63 1007.8 3998.6 996.039 3955.47 972.513C3912.99 948.333 3879.34 915.984 3854.5 875.466C3829.67 834.948 3817.25 789.529 3817.25 739.208C3817.25 688.888 3829.01 643.469 3852.54 602.951C3876.72 562.433 3909.4 530.411 3950.57 506.884C3991.74 482.704 4037.49 470.614 4087.81 470.614C4138.78 470.614 4183.87 483.031 4223.08 507.864C4262.29 532.044 4293.01 565.374 4315.23 607.852C4338.1 650.33 4349.54 699.017 4349.54 753.912V793.123H3979.98C3987.16 809.461 3996.64 823.838 4008.4 836.255C4020.82 848.672 4035.52 858.475 4052.52 865.663C4069.51 872.199 4087.81 875.466 4107.41 875.466C4128.98 875.466 4148.58 872.199 4166.23 865.663C4183.87 858.475 4198.9 848.672 4211.32 836.255L4316.21 929.381C4283.53 956.829 4249.88 976.761 4215.24 989.178C4181.26 1001.59 4142.7 1007.8 4099.57 1007.8ZM3977.04 682.353H4193.68C4188.45 665.361 4180.28 650.984 4169.17 639.221C4158.71 626.804 4146.3 617.328 4131.92 610.793C4117.54 603.604 4101.86 600.01 4084.87 600.01C4067.22 600.01 4051.21 603.277 4036.83 609.813C4022.45 616.348 4010.04 625.824 3999.58 638.24C3989.78 650.004 3982.26 664.708 3977.04 682.353ZM4633.43 1007.8C4584.42 1007.8 4539 1002.25 4497.18 991.138C4455.35 979.375 4419.08 962.383 4388.37 940.164L4463.85 833.314C4496.52 852.92 4526.26 867.297 4553.05 876.446C4579.85 884.942 4606.31 889.19 4632.45 889.19C4658.59 889.19 4679.18 885.596 4694.21 878.407C4709.9 870.565 4717.74 860.435 4717.74 848.018C4717.74 838.216 4713.49 830.374 4704.99 824.492C4696.5 817.957 4683.1 813.382 4664.8 810.768L4561.87 795.084C4510.25 787.242 4470.71 770.25 4443.26 744.11C4416.47 717.316 4403.07 682.679 4403.07 640.201C4403.07 604.911 4411.89 574.85 4429.54 550.016C4447.84 524.529 4473.65 505.25 4506.98 492.18C4540.31 478.456 4580.17 471.594 4626.57 471.594C4664.48 471.594 4702.05 476.822 4739.3 487.279C4776.55 497.735 4811.19 513.419 4843.21 534.332L4767.73 636.28C4739.63 619.942 4712.84 608.179 4687.35 600.99C4661.86 593.148 4636.38 589.227 4610.89 589.227C4590.63 589.227 4574.29 592.821 4561.87 600.01C4549.46 606.545 4543.25 615.367 4543.25 626.477C4543.25 636.933 4547.82 645.429 4556.97 651.964C4566.12 657.846 4581.81 662.42 4604.03 665.688L4706.95 681.372C4757.93 688.561 4797.14 705.552 4824.59 732.346C4852.69 758.487 4866.74 791.816 4866.74 832.334C4866.74 866.317 4856.61 896.379 4836.35 922.519C4816.09 948.66 4788.32 969.572 4753.03 985.256C4718.39 1000.29 4678.53 1007.8 4633.43 1007.8ZM4927.31 998V479.436H5086.11V998H4927.31ZM5006.71 431.403C4982.53 431.403 4961.95 422.907 4944.95 405.916C4927.96 388.925 4919.47 368.339 4919.47 344.159C4919.47 319.979 4927.96 299.393 4944.95 282.402C4961.95 265.411 4982.53 256.915 5006.71 256.915C5030.89 256.915 5051.48 265.411 5068.47 282.402C5085.46 299.393 5093.96 319.979 5093.96 344.159C5093.96 368.339 5085.46 388.925 5068.47 405.916C5051.48 422.907 5030.89 431.403 5006.71 431.403ZM5159.36 998V887.229L5400.5 611.773H5161.32V479.436H5606.36V590.207L5364.23 865.663H5614.2V998H5159.36ZM5853.07 1006.82C5816.47 1006.82 5783.8 999.961 5755.04 986.237C5726.94 972.513 5704.72 953.561 5688.38 929.381C5672.7 905.201 5664.86 877.427 5664.86 846.058C5664.86 796.391 5683.48 758.16 5720.73 731.366C5758.64 703.919 5811.24 690.195 5878.56 690.195C5919.07 690.195 5958.28 695.096 5996.19 704.899V679.412C5996.19 653.271 5987.69 633.993 5970.7 621.576C5954.36 608.506 5929.86 601.97 5897.18 601.97C5876.92 601.97 5854.05 605.238 5828.56 611.773C5803.73 618.308 5774.32 628.764 5740.34 643.142L5683.48 526.489C5725.96 507.538 5766.8 493.487 5806.02 484.338C5845.88 474.535 5885.74 469.634 5925.61 469.634C5997.49 469.634 6053.37 486.952 6093.23 521.588C6133.1 555.571 6153.03 603.604 6153.03 665.688V998H5996.19V966.631C5975.28 981.009 5953.06 991.465 5929.53 998C5906.66 1003.88 5881.17 1006.82 5853.07 1006.82ZM5815.82 843.117C5815.82 859.455 5823.01 872.199 5837.38 881.348C5851.76 890.497 5871.69 895.072 5897.18 895.072C5916.13 895.072 5933.78 893.111 5950.11 889.19C5967.11 885.269 5982.46 879.06 5996.19 870.565V803.906C5981.16 799.985 5965.8 797.044 5950.11 795.084C5934.43 793.123 5918.42 792.143 5902.08 792.143C5874.63 792.143 5853.39 796.718 5838.36 805.867C5823.33 814.362 5815.82 826.779 5815.82 843.117ZM6247.42 998V311.81L6406.22 287.303V515.706C6446.74 486.952 6492.49 472.575 6543.46 472.575C6593.13 472.575 6637.9 484.665 6677.76 508.845C6717.62 532.371 6749.32 564.393 6772.85 604.911C6796.37 644.776 6808.14 689.541 6808.14 739.208C6808.14 788.875 6796.05 833.968 6771.87 874.486C6748.34 914.35 6715.99 946.046 6674.82 969.572C6634.3 993.099 6588.88 1004.86 6538.56 1004.86C6514.38 1004.86 6490.85 1001.92 6467.98 996.039C6445.11 989.504 6423.87 980.355 6404.26 968.592V998H6247.42ZM6516.01 870.565C6542.16 870.565 6565.36 865.01 6585.61 853.9C6605.87 842.137 6621.88 826.453 6633.65 806.847C6646.06 786.588 6652.27 764.042 6652.27 739.208C6652.27 714.375 6646.06 692.155 6633.65 672.55C6621.88 652.291 6605.55 636.607 6584.63 625.497C6564.37 613.734 6541.5 607.852 6516.01 607.852C6493.8 607.852 6473.54 611.446 6455.24 618.635C6436.94 625.17 6420.6 635.3 6406.22 649.023V830.374C6419.95 842.79 6436.29 852.593 6455.24 859.782C6474.19 866.97 6494.45 870.565 6516.01 870.565ZM6883.07 998V311.81L7041.87 287.303V998H6883.07ZM7398.41 1007.8C7345.48 1007.8 7297.44 996.039 7254.31 972.513C7211.83 948.333 7178.18 915.984 7153.34 875.466C7128.51 834.948 7116.09 789.529 7116.09 739.208C7116.09 688.888 7127.86 643.469 7151.38 602.951C7175.56 562.433 7208.24 530.411 7249.41 506.884C7290.58 482.704 7336.33 470.614 7386.65 470.614C7437.62 470.614 7482.72 483.031 7521.93 507.864C7561.14 532.044 7591.85 565.374 7614.07 607.852C7636.94 650.33 7648.38 699.017 7648.38 753.912V793.123H7278.82C7286.01 809.461 7295.48 823.838 7307.25 836.255C7319.66 848.672 7334.37 858.475 7351.36 865.663C7368.35 872.199 7386.65 875.466 7406.25 875.466C7427.82 875.466 7447.43 872.199 7465.07 865.663C7482.72 858.475 7497.75 848.672 7510.16 836.255L7615.05 929.381C7582.38 956.829 7548.72 976.761 7514.08 989.178C7480.1 1001.59 7441.54 1007.8 7398.41 1007.8ZM7275.88 682.353H7492.52C7487.29 665.361 7479.12 650.984 7468.01 639.221C7457.56 626.804 7445.14 617.328 7430.76 610.793C7416.38 603.604 7400.7 600.01 7383.71 600.01C7366.06 600.01 7350.05 603.277 7335.67 609.813C7321.3 616.348 7308.88 625.824 7298.42 638.24C7288.62 650.004 7281.11 664.708 7275.88 682.353Z" fill="#35495E"/>
<path d="M511.314 607.825C537.224 607.822 562.173 617.656 581.112 635.341C600.051 653.026 611.576 677.238 613.348 703.09L613.577 710.088V1028.24C613.58 1054.15 603.746 1079.1 586.061 1098.04C568.377 1116.98 544.164 1128.5 518.312 1130.28L511.314 1130.5H102.263C76.3503 1130.5 51.403 1120.67 32.4622 1102.99C13.5215 1085.31 2.0006 1061.09 0.227023 1035.24L8.85892e-07 1028.24V710.088C-0.00340787 684.175 9.83051 659.229 27.5141 640.287C45.1977 621.345 69.4118 609.826 95.2631 608.054L102.263 607.825H511.314ZM874.912 607.825C883.151 607.825 891.111 610.808 897.318 616.225C903.526 621.641 907.562 629.117 908.683 637.277L909 641.913V1028.24C909.003 1054.15 899.169 1079.1 881.488 1098.04C863.807 1116.98 839.591 1128.5 813.739 1130.28L806.737 1130.5H715.84C707.202 1130.5 698.888 1127.22 692.578 1121.32C686.265 1115.43 682.43 1107.35 681.841 1098.74C681.251 1090.12 683.957 1081.6 689.405 1074.9C694.852 1068.2 702.648 1063.82 711.204 1062.65L715.84 1062.32H806.737C814.976 1062.32 822.936 1059.34 829.143 1053.93C835.35 1048.52 839.386 1041.03 840.508 1032.87L840.825 1028.24V641.913C840.825 632.873 844.418 624.201 850.809 617.81C857.201 611.418 865.872 607.825 874.912 607.825ZM511.314 676.001H102.263C94.0254 676.001 86.0666 678.983 79.8589 684.4C73.6509 689.813 69.6132 697.292 68.4931 705.452L68.1751 710.088V1028.24C68.1751 1045.51 80.992 1059.78 97.6267 1062.01L102.263 1062.32H511.314C519.55 1062.32 527.509 1059.34 533.717 1053.93C539.924 1048.52 543.963 1041.03 545.081 1032.87L545.402 1028.24V710.088C545.402 701.048 541.809 692.376 535.418 685.985C529.026 679.593 520.354 676.001 511.314 676.001ZM874.912 221.5C880.043 221.5 885.105 222.649 889.73 224.863L891.684 225.909C892.979 226.644 894.223 227.464 895.413 228.363L899.046 231.499L901.364 234.09L901.821 234.726L903.41 236.908C906.201 241.149 908.005 245.965 908.683 250.997L909 255.588V482.837C909 491.474 905.717 499.788 899.82 506.098C893.923 512.408 885.855 516.246 877.237 516.836C868.62 517.425 860.101 514.719 853.403 509.272C846.702 503.821 842.321 496.029 841.145 487.473L840.825 482.837V337.852L637.663 541.014C631.575 547.058 623.428 550.582 614.855 550.882C606.282 551.186 597.907 548.244 591.406 542.643C584.906 537.043 580.757 529.199 579.786 520.674C578.814 512.149 581.095 503.572 586.17 496.656L589.487 492.838L792.557 289.675H647.664C639.425 289.675 631.466 286.691 625.259 281.277C619.051 275.863 615.015 268.384 613.894 260.223L613.577 255.588C613.577 247.35 616.56 239.392 621.973 233.184C627.386 226.976 634.868 222.938 643.029 221.818L647.664 221.5H874.912ZM488.588 221.5C497.226 221.502 505.54 224.783 511.849 230.679C518.159 236.576 521.997 244.647 522.587 253.264C523.177 261.881 520.47 270.399 515.02 277.099C509.569 283.798 501.78 288.18 493.224 289.357L488.588 289.675H102.263C94.0254 289.675 86.0666 292.658 79.8589 298.073C73.6513 303.487 69.6132 310.966 68.4931 319.127L68.1751 323.763V505.563C68.1724 514.201 64.8914 522.515 58.9953 528.824C53.0992 535.134 45.0273 538.972 36.4109 539.562C27.7943 540.148 19.2755 537.445 12.5759 531.994C5.87635 526.544 1.49508 518.755 0.318039 510.199L8.85892e-07 505.563V323.763C-0.00340787 297.85 9.83051 272.903 27.5141 253.962C45.1977 235.022 69.4118 223.501 95.2631 221.727L102.263 221.5H488.588Z" fill="#9CCDB7"/>
<mask id="mask0_932_126" style="mask-type:luminance" maskUnits="userSpaceOnUse" x="147" y="710" width="308" height="307">
<path d="M147.736 1016.87H454.523V710.086H147.736V1016.87Z" fill="white"/>
</mask>
<g mask="url(#mask0_932_126)">
<path d="M265.661 992.906L301.132 932.026L336.604 992.906H454.526L301.132 729.26L147.738 992.906H265.661Z" fill="#42B883"/>
<path d="M265.686 992.908L301.157 932.027L336.629 992.908H393.194L301.157 834.718L209.121 992.908H265.686Z" fill="#35495E"/>
</g>
</svg>
