<svg viewBox="0 0 10896 1353" fill="none" xmlns="http://www.w3.org/2000/svg">
<path d="M427.213 779.462L260.387 1073.71L418.353 1352.44L627.573 983.488L836.702 614.534H520.675L427.213 779.462Z" fill="#1697F6"/>
<path d="M209.222 983.488L220.179 1002.89L376.24 727.557L440.358 614.533H418.349H0L209.222 983.488Z" fill="#AEDDFF"/>
<path d="M520.676 614.534C599.755 879.486 418.35 1352.44 418.35 1352.44L260.387 1073.71L520.676 614.534Z" fill="#1867C0"/>
<path d="M440.359 614.534C107.186 614.534 220.182 1002.89 220.182 1002.89L440.359 614.534Z" fill="#7BC6FF"/>
<path d="M469.28 558.667H779.34C789.234 558.667 798.705 555.19 807.273 550.287C815.842 545.383 824.675 539.227 829.62 530.732C834.565 522.239 838.004 512.602 838 502.797C837.996 492.99 834.573 483.357 829.62 474.869L620.12 114.527C615.175 106.035 609.133 99.876 600.567 94.9725C592 90.071 579.732 86.5926 569.84 86.5926C559.948 86.5926 550.473 90.071 541.907 94.9725C533.34 99.876 527.298 106.035 522.353 114.527L469.28 206.707L363.133 27.9267C358.184 19.4361 352.15 10.4888 343.58 5.58733C335.01 0.683846 325.541 0 315.647 0C305.753 0 296.282 0.683846 287.713 5.58733C279.145 10.4888 270.316 19.4361 265.367 27.9267L5.58675 474.869C0.634052 483.357 0.00436979 492.99 2.16723e-05 502.797C-0.00432644 512.602 0.641563 522.237 5.58675 530.732C10.5319 539.225 19.3647 545.383 27.9333 550.287C36.502 555.19 45.972 558.667 55.8668 558.667H251.4C328.877 558.667 385.271 523.911 424.587 458.107L519.56 293.3L569.84 206.707L723.473 469.279H519.56L469.28 558.667ZM248.607 469.279H111.733L315.647 117.32L419 293.3L350.539 412.643C324.431 455.34 294.662 469.279 248.607 469.279Z" fill="#00DC82"/>
<path d="M1273.55 1025L996.138 338.81H1178.47L1373.54 849.531L1572.54 338.81H1748.01L1466.67 1025H1273.55ZM1948.97 1034.8C1908.45 1034.8 1872.51 1025.98 1841.14 1008.34C1810.42 990.69 1786.24 966.184 1768.6 934.815C1750.95 902.793 1742.13 866.523 1742.13 826.005V506.436H1900.94V804.439C1900.94 832.54 1909.43 855.413 1926.42 873.058C1944.07 890.049 1966.94 898.545 1995.04 898.545C2015.3 898.545 2033.27 894.951 2048.96 887.762C2064.64 880.573 2077.71 870.444 2088.17 857.374V506.436H2246.97V1025H2088.17V989.71C2048.96 1019.77 2002.56 1034.8 1948.97 1034.8ZM2604.11 1034.8C2551.18 1034.8 2503.14 1023.04 2460.01 999.513C2417.53 975.333 2383.88 942.984 2359.04 902.466C2334.21 861.948 2321.79 816.529 2321.79 766.208C2321.79 715.888 2333.56 670.469 2357.08 629.951C2381.26 589.433 2413.94 557.411 2455.11 533.884C2496.28 509.704 2542.03 497.614 2592.35 497.614C2643.32 497.614 2688.42 510.031 2727.63 534.864C2766.84 559.044 2797.55 592.374 2819.77 634.852C2842.65 677.33 2854.08 726.017 2854.08 780.912V820.123H2484.52C2491.71 836.461 2501.18 850.838 2512.95 863.255C2525.36 875.672 2540.07 885.475 2557.06 892.663C2574.05 899.199 2592.35 902.466 2611.95 902.466C2633.52 902.466 2653.13 899.199 2670.77 892.663C2688.42 885.475 2703.45 875.672 2715.86 863.255L2820.75 956.381C2788.08 983.829 2754.42 1003.76 2719.78 1016.18C2685.8 1028.59 2647.24 1034.8 2604.11 1034.8ZM2481.58 709.353H2698.22C2692.99 692.361 2684.82 677.984 2673.71 666.221C2663.26 653.804 2650.84 644.328 2636.46 637.793C2622.08 630.604 2606.4 627.01 2589.41 627.01C2571.76 627.01 2555.75 630.277 2541.38 636.813C2527 643.348 2514.58 652.824 2504.12 665.24C2494.32 677.004 2486.81 691.708 2481.58 709.353ZM3175.69 1031.86C3113.6 1031.86 3066.55 1018.14 3034.53 990.691C3003.16 962.589 2987.48 921.418 2987.48 867.176V638.773H2882.59V506.436H2987.48V373.12L3146.28 338.81V506.436H3291.36V638.773H3146.28V835.808C3146.28 858.681 3151.18 875.018 3160.98 884.821C3171.44 893.97 3189.41 898.545 3214.9 898.545C3227.97 898.545 3239.73 897.891 3250.19 896.584C3261.3 894.624 3273.39 891.683 3286.46 887.762V1016.18C3272.08 1020.75 3253.78 1024.35 3231.56 1026.96C3209.34 1030.23 3190.72 1031.86 3175.69 1031.86ZM3353.35 1025V506.436H3512.16V1025H3353.35ZM3432.76 458.403C3408.58 458.403 3387.99 449.907 3371 432.916C3354.01 415.925 3345.51 395.339 3345.51 371.159C3345.51 346.979 3354.01 326.393 3371 309.402C3387.99 292.411 3408.58 283.915 3432.76 283.915C3456.94 283.915 3477.52 292.411 3494.51 309.402C3511.5 326.393 3520 346.979 3520 371.159C3520 395.339 3511.5 415.925 3494.51 432.916C3477.52 449.907 3456.94 458.403 3432.76 458.403ZM3692.25 1025V638.773H3578.54V506.436H3692.25V475.068C3692.25 413.637 3710.22 366.911 3746.17 334.889C3782.76 302.213 3835.04 285.875 3903.01 285.875C3916.73 285.875 3931.44 286.856 3947.12 288.816C3963.46 290.123 3976.86 292.411 3987.31 295.678V427.034C3974.9 424.42 3963.79 422.787 3953.98 422.133C3944.84 420.826 3935.03 420.173 3924.58 420.173C3900.4 420.173 3882.1 425.074 3869.68 434.877C3857.26 444.026 3851.06 458.403 3851.06 478.009V506.436H3987.31V638.773H3851.06V1025H3692.25ZM4125.42 1236.74C4113.01 1236.74 4100.92 1236.09 4089.15 1234.78C4077.39 1234.12 4067.59 1232.82 4059.75 1230.86V1095.58C4072.82 1098.19 4089.15 1099.5 4108.76 1099.5C4159.73 1099.5 4194.04 1077.28 4211.69 1032.84V1031.86L4012.69 506.436H4188.16L4302.85 832.867L4436.17 506.436H4607.72L4375.39 1051.47C4356.44 1096.56 4335.53 1132.5 4312.66 1159.3C4289.78 1186.74 4263.32 1206.35 4233.25 1218.11C4203.19 1230.53 4167.25 1236.74 4125.42 1236.74Z" fill="#1697F6"/>
<path d="M4853.62 1025V338.81H5012.42L5324.15 736.8V338.81H5482.96V1025H5333.95L5012.42 611.325V1025H4853.62ZM5791.56 1034.8C5751.04 1034.8 5715.1 1025.98 5683.73 1008.34C5653.01 990.69 5628.83 966.184 5611.19 934.815C5593.54 902.793 5584.72 866.523 5584.72 826.005V506.436H5743.52V804.439C5743.52 832.54 5752.02 855.413 5769.01 873.058C5786.66 890.049 5809.53 898.545 5837.63 898.545C5857.89 898.545 5875.86 894.951 5891.54 887.762C5907.23 880.573 5920.3 870.444 5930.76 857.374V506.436H6089.56V1025H5930.76V989.71C5891.54 1019.77 5845.14 1034.8 5791.56 1034.8ZM6133.99 1025L6331.03 762.287L6136.93 506.436H6321.23L6423.17 645.635L6524.14 506.436H6701.57L6510.42 760.327L6712.35 1025H6528.06L6419.25 876.979L6311.42 1025H6133.99ZM7008.7 1031.86C6946.62 1031.86 6899.56 1018.14 6867.54 990.691C6836.17 962.589 6820.49 921.418 6820.49 867.176V638.773H6715.6V506.436H6820.49V373.12L6979.29 338.81V506.436H7124.37V638.773H6979.29V835.808C6979.29 858.681 6984.19 875.018 6994 884.821C7004.45 893.97 7022.43 898.545 7047.91 898.545C7060.98 898.545 7072.75 897.891 7083.2 896.584C7094.31 894.624 7106.4 891.683 7119.47 887.762V1016.18C7105.09 1020.75 7086.8 1024.35 7064.58 1026.96C7042.36 1030.23 7023.73 1031.86 7008.7 1031.86ZM7385.67 1025V338.81H7598.39L7767.98 662.3L7937.56 338.81H8150.28V1025H7991.48V557.411L7766.01 975.986L7540.55 555.45V1025H7385.67ZM8514.44 1034.8C8461.5 1034.8 8413.8 1023.04 8371.32 999.513C8328.84 975.333 8295.18 942.984 8270.35 902.466C8245.52 861.948 8233.1 816.529 8233.1 766.208C8233.1 715.888 8245.52 670.469 8270.35 629.951C8295.18 588.779 8328.84 556.43 8371.32 532.904C8413.8 508.724 8461.5 496.634 8514.44 496.634C8567.37 496.634 8615.08 508.724 8657.56 532.904C8700.03 556.43 8733.69 588.779 8758.52 629.951C8783.36 670.469 8795.77 715.888 8795.77 766.208C8795.77 816.529 8783.36 861.948 8758.52 902.466C8733.69 942.984 8700.03 975.333 8657.56 999.513C8615.08 1023.04 8567.37 1034.8 8514.44 1034.8ZM8514.44 897.565C8538.62 897.565 8560.18 891.683 8579.13 879.92C8598.09 868.157 8613.12 852.472 8624.23 832.867C8635.34 812.608 8640.89 790.388 8640.89 766.208C8640.89 741.375 8635.34 719.155 8624.23 699.55C8613.12 679.291 8597.76 663.28 8578.15 651.517C8559.2 639.753 8537.96 633.872 8514.44 633.872C8490.91 633.872 8469.34 639.753 8449.74 651.517C8430.79 663.28 8415.76 679.291 8404.65 699.55C8393.54 719.155 8387.98 741.375 8387.98 766.208C8387.98 790.388 8393.54 812.608 8404.65 832.867C8415.76 852.472 8430.79 868.157 8449.74 879.92C8469.34 891.683 8490.91 897.565 8514.44 897.565ZM9111.4 1031.86C9062.39 1031.86 9017.62 1020.1 8977.1 996.572C8937.24 972.392 8905.54 940.37 8882.02 900.506C8858.49 859.988 8846.73 814.895 8846.73 765.228C8846.73 715.561 8858.49 670.795 8882.02 630.931C8906.2 590.413 8938.54 558.391 8979.06 534.864C9020.23 511.338 9065.98 499.575 9116.3 499.575C9140.48 499.575 9163.68 502.515 9185.9 508.397C9208.12 514.279 9229.03 522.774 9248.64 533.884V338.81L9407.44 314.303V1025H9250.6V986.769C9209.43 1016.83 9163.03 1031.86 9111.4 1031.86ZM9138.85 896.584C9161.07 896.584 9181.32 893.317 9199.62 886.782C9217.92 879.593 9234.26 869.137 9248.64 855.413V674.063C9234.91 660.993 9218.57 651.19 9199.62 644.655C9180.67 637.466 9160.41 633.872 9138.85 633.872C9113.36 633.872 9090.16 639.753 9069.25 651.517C9048.99 662.626 9032.65 678.311 9020.23 698.57C9008.47 718.175 9002.59 740.395 9002.59 765.228C9002.59 790.062 9008.47 812.608 9020.23 832.867C9032.65 852.472 9048.99 868.157 9069.25 879.92C9090.16 891.03 9113.36 896.584 9138.85 896.584ZM9708.81 1034.8C9668.29 1034.8 9632.35 1025.98 9600.98 1008.34C9570.27 990.69 9546.09 966.184 9528.44 934.815C9510.8 902.793 9501.98 866.523 9501.98 826.005V506.436H9660.78V804.439C9660.78 832.54 9669.27 855.413 9686.27 873.058C9703.91 890.049 9726.78 898.545 9754.89 898.545C9775.14 898.545 9793.12 894.951 9808.8 887.762C9824.48 880.573 9837.55 870.444 9848.01 857.374V506.436H10006.8V1025H9848.01V989.71C9808.8 1019.77 9762.4 1034.8 9708.81 1034.8ZM10105.2 1025V338.81L10264 314.303V1025H10105.2ZM10620.5 1034.8C10567.6 1034.8 10519.5 1023.04 10476.4 999.513C10433.9 975.333 10400.3 942.984 10375.4 902.466C10350.6 861.948 10338.2 816.529 10338.2 766.208C10338.2 715.888 10350 670.469 10373.5 629.951C10397.7 589.433 10430.3 557.411 10471.5 533.884C10512.7 509.704 10558.4 497.614 10608.7 497.614C10659.7 497.614 10704.8 510.031 10744 534.864C10783.2 559.044 10814 592.374 10836.2 634.852C10859 677.33 10870.5 726.017 10870.5 780.912V820.123H10500.9C10508.1 836.461 10517.6 850.838 10529.3 863.255C10541.8 875.672 10556.5 885.475 10573.5 892.663C10590.4 899.199 10608.7 902.466 10628.4 902.466C10649.9 902.466 10669.5 899.199 10687.2 892.663C10704.8 885.475 10719.8 875.672 10732.3 863.255L10837.2 956.381C10804.5 983.829 10770.8 1003.76 10736.2 1016.18C10702.2 1028.59 10663.6 1034.8 10620.5 1034.8ZM10498 709.353H10714.6C10709.4 692.361 10701.2 677.984 10690.1 666.221C10679.7 653.804 10667.2 644.328 10652.9 637.793C10638.5 630.604 10622.8 627.01 10605.8 627.01C10588.2 627.01 10572.2 630.277 10557.8 636.813C10543.4 643.348 10531 652.824 10520.5 665.24C10510.7 677.004 10503.2 691.708 10498 709.353Z" fill="black"/>
</svg>
