<svg width="686" height="429" viewBox="0 0 686 429" fill="none" xmlns="http://www.w3.org/2000/svg">
<path d="M0 427.11C0 427.77 0.53003 428.3 1.19006 428.3H684.48C685.14 428.3 685.67 427.77 685.67 427.11C685.67 426.45 685.14 425.92 684.48 425.92H1.19006C0.53003 425.92 0 426.45 0 427.11Z" fill="#3F3D56"/>
<rect x="415.5" y="293.5" width="235" height="133" rx="19.5" fill="white" stroke="black"/>
<path d="M299.56 176.506H53.8526V240.326H299.56V176.506Z" fill="#EB9E0A"/>
<rect x="54.5" y="0.5" width="245" height="428" rx="19.5" fill="white" stroke="black"/>
<path d="M210.212 1H146.392V427H210.212V1Z" fill="#EB9E0A"/>
<path opacity="0.2" d="M212.571 235.521C213.023 233.763 213.292 231.936 213.358 230.053L293.178 157.36L224.572 123.854L194.335 204.486C192.268 203.946 190.111 203.629 187.875 203.629C186.688 203.629 185.529 203.738 184.385 203.895L154.369 123.854L85.7628 157.36L162.446 227.196C162.397 227.846 162.347 228.495 162.347 229.157C162.347 231.359 162.655 233.483 163.179 235.521C116.174 250.211 96.9313 294.573 96.9313 294.573L155.965 342.438C152.444 307.229 173.946 271.184 185.57 254.569C186.33 254.637 187.097 254.685 187.875 254.685C188.654 254.685 189.42 254.637 190.181 254.569C201.805 271.184 223.306 307.23 219.785 342.438L278.819 294.573C278.819 294.573 259.576 250.211 212.571 235.521Z" fill="black"/>
<path d="M221.239 325.19C220.55 325.19 219.856 325.041 219.201 324.734C217.544 323.961 216.497 322.349 216.468 320.526C215.984 289.659 198.384 259.364 187.935 244.054C187.237 243.031 186.032 242.421 184.711 242.421H184.705C183.335 242.421 182.13 243.031 181.433 244.054C170.984 259.364 153.384 289.659 152.899 320.526C152.871 322.348 151.824 323.961 150.167 324.734C148.493 325.519 146.562 325.281 145.129 324.12L96.0616 284.335C94.3101 282.914 93.7959 280.426 94.8394 278.417C99.7994 268.865 118.895 236.672 156.37 223.434C158.042 222.843 159.058 221.178 158.839 219.384C158.717 218.382 158.656 217.376 158.656 216.394C158.658 215.222 158.21 214.157 157.427 213.444L86.8853 149.2C85.7154 148.135 85.1509 146.563 85.3745 144.997C85.5987 143.431 86.5816 142.08 88.0035 141.386L146.736 112.703C147.941 112.114 149.347 112.062 150.594 112.557C151.841 113.053 152.826 114.059 153.297 115.314L180.529 187.935C181.091 189.434 182.533 190.412 184.169 190.371C185.403 190.343 186.654 190.414 187.902 190.576C189.663 190.812 191.324 189.818 191.94 188.172L219.262 115.314C219.733 114.059 220.718 113.053 221.965 112.557C223.211 112.063 224.619 112.115 225.823 112.703L284.555 141.386C285.977 142.08 286.96 143.431 287.184 144.998C287.408 146.563 286.843 148.135 285.673 149.2L211.768 216.508C211.079 217.135 210.65 217.991 210.561 218.918C210.541 219.118 210.52 219.318 210.496 219.518C210.293 221.203 211.341 222.849 212.986 223.43C250.47 236.665 269.568 268.864 274.529 278.417C275.572 280.426 275.058 282.914 273.307 284.335L224.239 324.12C223.367 324.827 222.31 325.19 221.239 325.19Z" fill="#EB9E0A"/>
<path d="M553.308 292.729H518.102V428.272H553.308V292.729Z" fill="#EB9E0A"/>
<path d="M650.124 343.777H415.124V378.983H650.124V343.777Z" fill="#EB9E0A"/>
<path opacity="0.2" d="M525.752 383.284C526.722 383.534 527.73 383.682 528.768 383.719L568.869 427.751L587.353 389.904L542.873 373.224C543.17 372.084 543.345 370.894 543.345 369.661C543.345 369.006 543.285 368.367 543.198 367.736L587.353 351.178L568.869 313.331L530.345 355.633C529.986 355.606 529.628 355.579 529.263 355.579C528.048 355.579 526.876 355.749 525.752 356.038C517.648 330.108 493.177 319.492 493.177 319.492L466.772 352.058C486.195 350.116 506.079 361.977 515.245 368.389C515.207 368.809 515.18 369.232 515.18 369.661C515.18 370.09 515.207 370.513 515.245 370.933C506.079 377.345 486.195 389.206 466.772 387.264L493.177 419.83C493.177 419.83 517.648 409.214 525.752 383.284Z" fill="black"/>
<path d="M570.315 421.696C569.518 421.696 568.752 421.362 568.206 420.764L531.074 379.991C530.768 379.655 530.322 379.442 529.819 379.392L529.659 379.375C528.752 379.274 527.924 379.765 527.64 380.57C520.311 401.35 502.468 411.925 497.174 414.671C495.981 415.292 494.5 414.98 493.65 413.93L471.701 386.858C471.005 386.001 470.865 384.845 471.334 383.841C471.796 382.852 472.757 382.228 473.843 382.211C490.812 381.949 507.485 372.264 515.913 366.514C516.42 366.167 516.723 365.569 516.722 364.915C516.723 364.231 516.42 363.634 515.913 363.288C507.486 357.538 490.815 347.853 473.843 347.591C472.757 347.574 471.795 346.949 471.334 345.96C470.865 344.956 471.005 343.8 471.701 342.942L493.651 315.871C494.501 314.824 495.982 314.512 497.173 315.129C502.467 317.876 520.306 328.45 527.637 349.223C527.921 350.027 528.732 350.529 529.549 350.431C530.439 350.318 531.324 350.293 532.18 350.356L568.206 310.798C568.844 310.098 569.785 309.759 570.721 309.895C571.659 310.029 572.466 310.617 572.881 311.468L588.706 343.87C589.059 344.592 589.09 345.434 588.793 346.18C588.496 346.925 587.895 347.514 587.143 347.795L547.081 362.818C546.344 363.095 545.863 363.815 545.883 364.61L545.886 364.9C545.886 365.523 545.843 366.157 545.757 366.784C545.648 367.591 546.15 368.394 546.953 368.695L587.144 383.767C587.895 384.049 588.497 384.638 588.794 385.384C589.09 386.13 589.058 386.971 588.706 387.692L572.881 420.095C572.466 420.945 571.659 421.533 570.721 421.667C570.586 421.687 570.45 421.696 570.315 421.696Z" fill="#EB9E0A"/>
<path d="M383.69 171.688H351.463V161.077C351.463 143.291 365.904 128.851 383.69 128.851L383.69 171.688Z" fill="#2F2E41"/>
<path d="M376.547 151.88L382.088 176.802L349.619 171.41L362.85 147.84L376.547 151.88Z" fill="#FFB6B6"/>
<path opacity="0.1" d="M376.547 151.88L382.088 176.802L349.619 171.41L362.85 147.84L376.547 151.88Z" fill="black"/>
<path d="M376.547 205.118H345.417V251.19H376.547V205.118Z" fill="#FFB6B6"/>
<path d="M396.781 288.857L389.933 325.59C389.933 325.59 394.291 351.116 381.216 377.265L372.5 404.036L359.426 402.168C359.426 402.168 367.519 382.245 367.519 373.529C367.519 364.813 369.387 331.193 369.387 331.193L368.453 292.83L396.781 288.857Z" fill="#FFB6B6"/>
<path d="M357.558 401.546C357.558 401.546 372.5 395.942 373.745 404.036L373.123 407.772C373.123 407.772 378.726 424.581 370.632 425.827C362.539 427.072 355.068 428.94 354.445 425.204C353.822 421.469 353.832 416.806 355.384 413.534C356.935 410.262 357.558 401.546 357.558 401.546Z" fill="#2F2E41"/>
<path d="M349.651 283.159L346.013 320.347C346.013 320.347 334.728 343.654 340.014 372.408L340.941 400.547L354.019 402.389C354.019 402.389 351.786 381.001 354.21 372.629C356.634 364.256 364.19 331.443 364.19 331.443L375.756 294.854L349.651 283.159Z" fill="#FFB6B6"/>
<path d="M355.987 402.31C355.987 402.31 343.192 392.772 339.745 400.201L339.304 403.962C339.304 403.962 329.425 422.553 336.853 426C344.281 429.447 350.76 429.316 352.397 425.901C354.034 422.486 355.321 418.004 354.741 414.43C354.161 410.856 355.987 402.31 355.987 402.31Z" fill="#2F2E41"/>
<path d="M388.687 229.711L415.459 286.366C415.459 286.366 361.605 313.449 329.853 313.449L345.618 229.711L388.687 229.711Z" fill="#2F2E41"/>
<path d="M364.718 163.405L380.282 165.895L379.037 205.118L396.47 239.983L374.057 251.19C374.057 251.19 356.624 218.193 353.511 197.647C350.398 177.102 352.266 162.16 352.266 162.16L364.718 163.405Z" fill="#E6E6E6"/>
<path d="M352.888 164.65L337.324 167.14L338.569 206.364L334.833 242.474L343.55 252.435C343.55 252.435 360.982 219.438 364.095 198.893C367.208 178.347 365.34 163.405 365.34 163.405L352.888 164.65Z" fill="#E6E6E6"/>
<path d="M376.858 166.829L380.282 165.895C380.282 165.895 392.423 164.339 394.291 169.32C396.159 174.3 395.536 203.562 395.536 203.562C395.536 203.562 398.748 239.476 386.247 239.885C373.745 240.295 376.236 210.41 376.236 210.41L376.858 166.829Z" fill="#E6E6E6"/>
<path d="M371.114 158.719C380.013 158.719 387.227 151.505 387.227 142.606C387.227 133.707 380.013 126.493 371.114 126.493C362.215 126.493 355.001 133.707 355.001 142.606C355.001 151.505 362.215 158.719 371.114 158.719Z" fill="#FFB6B6"/>
<path d="M366.073 164.782C369.53 163.905 373.449 167.597 374.828 173.03C375.408 175.193 375.462 177.464 374.985 179.652L376.471 185.828L376.58 185.823L388.296 213.434C391.02 219.854 390.732 227.224 387.258 233.271C385.191 236.868 382.478 239.286 379.292 236.817C374.005 232.721 370.553 209.268 368.976 195.796L365.331 182.102C363.868 180.405 362.832 178.383 362.311 176.205C360.932 170.773 362.616 165.659 366.073 164.782Z" fill="#FFB6B6"/>
<path d="M351.021 166.829L347.596 165.895C347.596 165.895 335.456 164.339 333.588 169.32C331.72 174.3 332.343 203.562 332.343 203.562C332.343 203.562 329.13 239.476 341.632 239.885C354.134 240.295 351.643 210.41 351.643 210.41L351.021 166.829Z" fill="#E6E6E6"/>
<path d="M361.806 164.782C358.349 163.905 354.43 167.597 353.051 173.03C352.471 175.193 352.417 177.464 352.894 179.652L351.408 185.828L351.299 185.823L339.583 213.434C336.859 219.854 337.147 227.224 340.621 233.271C342.688 236.868 345.401 239.286 348.587 236.817C353.873 232.721 357.326 209.268 358.903 195.796L362.548 182.102C364.011 180.405 365.047 178.383 365.568 176.205C366.947 170.773 365.262 165.659 361.806 164.782Z" fill="#FFB6B6"/>
<path d="M340.265 155.642C341.085 153.15 342.703 150.968 343.427 148.446C344.388 145.098 346.434 152.526 346.634 149.048C347.013 142.438 357.102 125.436 362.861 122.17C368.62 118.904 371.928 119.888 377.795 122.956C377.795 122.956 380.643 123.137 384.189 124.887C387.735 126.638 390.926 129.441 392.305 133.148C393.399 136.085 393.278 139.311 393.643 142.424C394.66 151.097 399.522 159.345 398.478 168.014C398.153 170.719 397.125 173.516 394.913 175.107C392.702 176.698 389.129 176.525 387.673 174.222C387.176 173.436 386.966 172.504 386.54 171.678C386.115 170.851 385.345 170.081 384.416 170.106C383.019 170.145 382.308 172.019 382.859 173.304C383.41 174.588 384.704 175.363 385.92 176.053C383.025 177.355 379.435 176.95 376.903 175.035C374.372 173.12 373.005 169.775 373.471 166.635C374.127 162.211 380.573 163.127 381.332 158.719C381.885 155.511 383.826 150.142 383.297 146.929C382.768 143.716 380.229 147.606 382.904 145.75C379.961 147.169 373.666 137.463 370.586 136.376C367.505 135.289 364.893 132.936 363.492 129.984C360.224 134.721 357.35 133.435 356.18 139.069C355.009 144.703 356.091 157.504 360.91 160.649C358.982 161.965 357.444 163.847 356.539 165.999C356.027 167.218 355.695 168.552 354.844 169.564C353.219 171.498 350.218 171.616 347.827 170.803C344.862 169.794 342.326 167.58 340.928 164.777C339.53 161.974 339.287 158.617 340.265 155.642Z" fill="#2F2E41"/>
</svg>
