<svg width="739" height="297" viewBox="0 0 739 297" fill="none" xmlns="http://www.w3.org/2000/svg">
<g clip-path="url(#clip0_883_35)">
<mask id="mask0_883_35" style="mask-type:luminance" maskUnits="userSpaceOnUse" x="0" y="0" width="739" height="297">
<path d="M0 0H739V297H0V0Z" fill="white"/>
</mask>
<g mask="url(#mask0_883_35)">
<path d="M123.743 245.623H96.8432V257.998H120.677V265.469H96.8392V278.211H124.064V285.682H88.4512V238.152H123.697V245.623H123.743Z" fill="#304FFE"/>
<path d="M180.44 285.682H162.702V238.152H180.44C195.382 238.152 205.694 248.419 205.694 261.852C205.74 275.323 195.427 285.682 180.44 285.682ZM180.44 245.761H171.04V278.074H180.44C190.432 278.074 196.94 271.336 196.94 261.986C196.986 252.635 190.431 245.76 180.44 245.76V245.761Z" fill="#304FFE"/>
<path d="M284.069 265.102C284.069 279.31 276.048 286.415 263.627 286.415C251.252 286.415 243.368 279.265 243.368 265.515V238.152H251.71V265.194C251.71 274.04 256.248 278.761 263.718 278.761C271.143 278.761 275.681 274.269 275.681 265.515V238.152H284.023V265.102H284.069Z" fill="#304FFE"/>
<path d="M345.991 286.507C332.149 286.507 321.791 275.69 321.791 261.986C321.791 248.419 331.92 237.328 346.312 237.328C355.066 237.328 360.383 240.399 364.921 244.753L359.558 250.941C355.758 247.412 351.675 245.029 346.266 245.029C337.145 245.029 330.591 252.5 330.591 261.896C330.591 271.292 337.191 278.896 346.266 278.896C352.087 278.896 355.845 276.513 359.924 272.708L365.287 278.162C360.337 283.252 354.883 286.507 345.991 286.507Z" fill="#304FFE"/>
<path d="M447.834 285.685H438.988L434.176 274.227H411.676L406.776 285.685H398.196L419.096 237.785H426.842L447.834 285.685ZM422.896 247.823L414.738 266.844H431.101L422.896 247.823Z" fill="#304FFE"/>
<path d="M479.046 261.985C479.046 248.418 489.175 237.327 503.567 237.327C512.321 237.327 517.638 240.398 522.176 244.752L516.813 250.94C513.013 247.411 508.93 245.028 503.521 245.028C494.4 245.028 487.846 252.499 487.846 261.895C487.846 271.291 494.446 278.895 503.521 278.895C509.342 278.895 513.1 276.512 517.179 272.707L522.542 278.161C517.913 282.974 512.825 286.182 504.758 286.503L500.266 296.953L493.116 293.974L498.479 286.091C487.067 283.94 479.046 274.086 479.046 261.985Z" fill="#304FFE"/>
<path d="M605.043 285.682H596.197L591.385 274.224H568.885L563.985 285.682H555.405L576.305 237.782H584.051L605.043 285.682ZM585.472 234.211C581.714 234.211 578.139 231.511 575.709 231.511C573.738 231.511 573.009 232.611 571.951 234.903L567.413 233.528C568.925 228.028 570.896 225.049 575.021 225.049C578.779 225.049 582.354 227.749 584.784 227.749C586.755 227.749 587.484 226.649 588.542 224.357L593.08 225.778C591.614 231.231 589.643 234.211 585.472 234.211ZM580.109 247.824L571.951 266.845H588.314L580.109 247.824Z" fill="#304FFE"/>
<path d="M661.01 286.507C646.389 286.507 636.21 275.415 636.21 261.986C636.21 248.557 646.523 237.328 661.144 237.328C675.765 237.328 685.944 248.42 685.944 261.849C685.94 275.327 675.627 286.507 661.01 286.507ZM661.01 245.028C651.568 245.028 644.968 252.545 644.968 261.895C644.968 271.195 651.706 278.895 661.147 278.895C670.588 278.895 677.189 271.332 677.189 262.028C677.185 252.681 670.448 245.027 661.01 245.027V245.028Z" fill="#304FFE"/>
<path d="M424.23 44.4132C433.181 44.3015 442.064 45.9846 450.355 49.3632C457.927 52.4551 464.801 57.0376 470.568 62.8382C476.197 68.5804 480.596 75.4116 483.493 82.9132C486.553 90.803 488.093 99.2008 488.031 107.663C488.036 111.437 487.76 115.206 487.206 118.938C486.656 122.605 486.106 125.63 485.556 128.013H389.856C392.239 136.813 396.822 143.505 403.606 148.088C410.389 152.672 418.731 154.963 428.631 154.963C435.545 155.041 442.409 153.78 448.844 151.25C455.161 148.676 461.122 145.303 466.582 141.212L481.707 166.512C474.214 172.805 465.766 177.865 456.682 181.5C447.396 185.132 437.501 186.952 427.532 186.863C417.28 186.968 407.103 185.101 397.557 181.363C388.753 177.93 380.716 172.789 373.907 166.238C367.3 159.812 362.02 152.15 358.369 143.688C354.561 134.831 352.641 125.278 352.731 115.638C352.547 101.607 356.576 87.8434 364.298 76.1264C372.019 64.4095 383.078 55.2779 396.044 49.9122C404.974 46.2023 414.56 44.332 424.23 44.4132ZM422.855 74.3882C415.239 74.2303 407.821 76.8171 401.955 81.6762C396.088 86.5348 392.055 93.2725 389.855 101.889H452.281C451.914 93.0892 448.889 86.3058 443.206 81.5392C437.513 76.768 430.281 74.2268 422.856 74.3882H422.855Z" fill="#304FFE"/>
<path d="M300.02 47.4382V126.685C300.02 134.798 297.545 141.123 292.595 145.798C287.713 150.448 281.185 152.97 274.445 152.811C267.617 153.005 260.991 150.483 256.02 145.798C251.07 141.123 248.595 134.752 248.595 126.685V47.4852H211.744V133.468C211.744 160.368 230.169 187.231 264.27 187.231C285.812 187.231 300.02 167.889 300.02 167.889V183.61H336.87V47.4382H300.02Z" fill="#304FFE"/>
<path d="M577.451 45.7883C581.456 45.7043 585.448 46.2614 589.276 47.4383V80.1633H579.376C568.743 80.1633 560.034 83.0049 553.251 88.6883C546.468 94.3716 543.076 103.355 543.076 115.638V183.564H505.951V47.4383H540.051V63.6633C544.416 57.9724 550.072 53.4007 556.551 50.3253C563.092 47.2731 570.233 45.7229 577.451 45.7883Z" fill="#304FFE"/>
<path d="M200.514 191.31L172.235 154.46C178.071 147.468 182.872 139.673 186.489 131.314C191.48 119.525 194.051 106.853 194.051 94.0511C194.051 81.2489 191.48 68.5773 186.489 56.7881C181.628 45.5908 174.621 35.454 165.864 26.9501C157.055 18.4511 146.691 11.7286 135.339 7.15006C123.415 2.32905 110.66 -0.100366 97.7997 6.14147e-05H97.2497C84.3893 -0.100235 71.6347 2.32918 59.7117 7.15006C48.3596 11.7286 37.9958 18.4511 29.1867 26.9501C20.4294 35.454 13.4225 45.5908 8.56169 56.7881C3.57079 68.5773 0.999023 81.2489 0.999023 94.0511C0.999023 106.853 3.57079 119.525 8.56169 131.314C13.4066 142.486 20.3633 152.618 29.0497 161.152C35.4669 167.413 42.7717 172.695 50.7287 176.827L70.2537 147.585C64.8291 144.901 59.8757 141.355 55.5867 137.085C50.2748 131.725 46.1519 125.307 43.4867 118.247C40.5735 110.516 39.1277 102.309 39.2237 94.0471C39.119 85.8294 40.5653 77.6657 43.4867 69.9841C46.173 62.9723 50.2674 56.5853 55.5174 51.217C60.7674 45.8487 67.0616 41.613 74.0117 38.7711C89.1378 32.9044 105.911 32.9044 121.037 38.7711C127.987 41.613 134.281 45.8487 139.531 51.217C144.781 56.5853 148.875 62.9723 151.562 69.9841C154.483 77.6657 155.929 85.8294 155.825 94.0471C155.921 102.309 154.475 110.516 151.562 118.247C148.896 125.307 144.774 131.725 139.462 137.085C135.173 141.355 130.219 144.901 124.795 147.585L173.929 211.615L200.514 191.31Z" fill="#304FFE"/>
<path d="M97.1591 189.614C108.525 189.614 117.738 180.401 117.738 169.035C117.738 157.67 108.525 148.456 97.1591 148.456C85.7936 148.456 76.5801 157.67 76.5801 169.035C76.5801 180.401 85.7936 189.614 97.1591 189.614Z" fill="#FFA366"/>
<path d="M665.772 44.413C685.002 44.3236 703.524 51.6634 717.472 64.901C724.109 71.2782 729.434 78.8922 733.147 87.314C737.043 96.1478 739.011 105.71 738.922 115.364C739.002 125.062 737.034 134.667 733.147 143.552C729.459 152.028 724.132 159.691 717.472 166.102C703.503 179.317 685.003 186.681 665.772 186.681C646.542 186.681 628.042 179.317 614.072 166.102C607.426 159.71 602.14 152.039 598.534 143.552C594.735 134.644 592.816 125.048 592.896 115.364C592.797 105.953 594.625 96.6214 598.266 87.9431C601.908 79.2647 607.287 71.4232 614.071 64.901C620.771 58.5108 628.606 53.4277 637.171 49.913C646.244 46.1932 655.968 44.3233 665.772 44.413ZM665.772 78.238C655.322 78.238 646.843 81.7673 640.334 88.826C633.826 95.8847 630.571 104.822 630.571 115.639C630.571 126.456 633.826 135.302 640.334 142.177C646.843 149.052 655.322 152.49 665.772 152.49C670.54 152.526 675.265 151.59 679.659 149.74C683.867 147.976 687.661 145.354 690.797 142.04C693.978 138.64 696.496 134.676 698.222 130.352C700.091 125.674 701.025 120.676 700.972 115.639C701.016 110.558 700.083 105.517 698.222 100.789C696.519 96.4123 694 92.3994 690.797 88.964C687.643 85.6369 683.856 82.9723 679.659 81.126C675.288 79.1876 670.554 78.203 665.772 78.238Z" fill="#304FFE"/>
</g>
</g>
<defs>
<clipPath id="clip0_883_35">
<rect width="739" height="297" fill="white"/>
</clipPath>
</defs>
</svg>
